G04 #@! TF.GenerationSoftware,KiCad,Pcbnew,(2017-12-14 revision b47a06e42)-master*
G04 #@! TF.CreationDate,2017-12-14T23:45:36+01:00*
G04 #@! TF.ProjectId,LDR_MLX,4C44525F4D4C582E6B696361645F7063,rev?*
G04 #@! TF.SameCoordinates,Original*
G04 #@! TF.FileFunction,Legend,Bot*
G04 #@! TF.FilePolarity,Positive*
%FSLAX46Y46*%
G04 Gerber Fmt 4.6, Leading zero omitted, Abs format (unit mm)*
G04 Created by KiCad (PCBNEW (2017-12-14 revision b47a06e42)-master) date Thu Dec 14 23:45:36 2017*
%MOMM*%
%LPD*%
G01*
G04 APERTURE LIST*
%ADD10C,0.200000*%
G04 APERTURE END LIST*
D10*
X172341428Y-78938095D02*
X172960476Y-78938095D01*
X172960476Y-77638095D01*
X171908095Y-78938095D02*
X171908095Y-77638095D01*
X170608095Y-77700000D02*
X170731904Y-77638095D01*
X170917619Y-77638095D01*
X171103333Y-77700000D01*
X171227142Y-77823809D01*
X171289047Y-77947619D01*
X171350952Y-78195238D01*
X171350952Y-78380952D01*
X171289047Y-78628571D01*
X171227142Y-78752380D01*
X171103333Y-78876190D01*
X170917619Y-78938095D01*
X170793809Y-78938095D01*
X170608095Y-78876190D01*
X170546190Y-78814285D01*
X170546190Y-78380952D01*
X170793809Y-78380952D01*
X169989047Y-78938095D02*
X169989047Y-77638095D01*
X169989047Y-78257142D02*
X169246190Y-78257142D01*
X169246190Y-78938095D02*
X169246190Y-77638095D01*
X168812857Y-77638095D02*
X168070000Y-77638095D01*
X168441428Y-78938095D02*
X168441428Y-77638095D01*
X167946190Y-79061904D02*
X166955714Y-79061904D01*
X166646190Y-78938095D02*
X166646190Y-77638095D01*
X166336666Y-77638095D01*
X166150952Y-77700000D01*
X166027142Y-77823809D01*
X165965238Y-77947619D01*
X165903333Y-78195238D01*
X165903333Y-78380952D01*
X165965238Y-78628571D01*
X166027142Y-78752380D01*
X166150952Y-78876190D01*
X166336666Y-78938095D01*
X166646190Y-78938095D01*
X165346190Y-78257142D02*
X164912857Y-78257142D01*
X164727142Y-78938095D02*
X165346190Y-78938095D01*
X165346190Y-77638095D01*
X164727142Y-77638095D01*
X164355714Y-77638095D02*
X163612857Y-77638095D01*
X163984285Y-78938095D02*
X163984285Y-77638095D01*
X173022380Y-81026190D02*
X172836666Y-81088095D01*
X172527142Y-81088095D01*
X172403333Y-81026190D01*
X172341428Y-80964285D01*
X172279523Y-80840476D01*
X172279523Y-80716666D01*
X172341428Y-80592857D01*
X172403333Y-80530952D01*
X172527142Y-80469047D01*
X172774761Y-80407142D01*
X172898571Y-80345238D01*
X172960476Y-80283333D01*
X173022380Y-80159523D01*
X173022380Y-80035714D01*
X172960476Y-79911904D01*
X172898571Y-79850000D01*
X172774761Y-79788095D01*
X172465238Y-79788095D01*
X172279523Y-79850000D01*
X170979523Y-80964285D02*
X171041428Y-81026190D01*
X171227142Y-81088095D01*
X171350952Y-81088095D01*
X171536666Y-81026190D01*
X171660476Y-80902380D01*
X171722380Y-80778571D01*
X171784285Y-80530952D01*
X171784285Y-80345238D01*
X171722380Y-80097619D01*
X171660476Y-79973809D01*
X171536666Y-79850000D01*
X171350952Y-79788095D01*
X171227142Y-79788095D01*
X171041428Y-79850000D01*
X170979523Y-79911904D01*
X169803333Y-81088095D02*
X170422380Y-81088095D01*
X170422380Y-79788095D01*
X173022380Y-83176190D02*
X172836666Y-83238095D01*
X172527142Y-83238095D01*
X172403333Y-83176190D01*
X172341428Y-83114285D01*
X172279523Y-82990476D01*
X172279523Y-82866666D01*
X172341428Y-82742857D01*
X172403333Y-82680952D01*
X172527142Y-82619047D01*
X172774761Y-82557142D01*
X172898571Y-82495238D01*
X172960476Y-82433333D01*
X173022380Y-82309523D01*
X173022380Y-82185714D01*
X172960476Y-82061904D01*
X172898571Y-82000000D01*
X172774761Y-81938095D01*
X172465238Y-81938095D01*
X172279523Y-82000000D01*
X171722380Y-83238095D02*
X171722380Y-81938095D01*
X171412857Y-81938095D01*
X171227142Y-82000000D01*
X171103333Y-82123809D01*
X171041428Y-82247619D01*
X170979523Y-82495238D01*
X170979523Y-82680952D01*
X171041428Y-82928571D01*
X171103333Y-83052380D01*
X171227142Y-83176190D01*
X171412857Y-83238095D01*
X171722380Y-83238095D01*
X170484285Y-82866666D02*
X169865238Y-82866666D01*
X170608095Y-83238095D02*
X170174761Y-81938095D01*
X169741428Y-83238095D01*
M02*
