G04 #@! TF.GenerationSoftware,KiCad,Pcbnew,(2017-12-14 revision b47a06e42)-master*
G04 #@! TF.CreationDate,2017-12-14T23:45:36+01:00*
G04 #@! TF.ProjectId,LDR_MLX,4C44525F4D4C582E6B696361645F7063,rev?*
G04 #@! TF.SameCoordinates,Original*
G04 #@! TF.FileFunction,Soldermask,Top*
G04 #@! TF.FilePolarity,Negative*
%FSLAX46Y46*%
G04 Gerber Fmt 4.6, Leading zero omitted, Abs format (unit mm)*
G04 Created by KiCad (PCBNEW (2017-12-14 revision b47a06e42)-master) date Thu Dec 14 23:45:36 2017*
%MOMM*%
%LPD*%
G01*
G04 APERTURE LIST*
%ADD10R,1.400000X1.650000*%
%ADD11C,4.400000*%
%ADD12R,1.150000X1.200000*%
%ADD13R,1.200000X1.150000*%
%ADD14C,2.000000*%
%ADD15O,2.100000X2.100000*%
%ADD16R,2.100000X2.100000*%
%ADD17R,1.300000X0.900000*%
%ADD18R,0.900000X1.300000*%
%ADD19C,1.840000*%
%ADD20O,2.800000X2.000000*%
%ADD21R,2.800000X2.000000*%
%ADD22O,2.432000X2.940000*%
G04 APERTURE END LIST*
D10*
X181100000Y-66000000D03*
X183100000Y-66000000D03*
X186000000Y-66000000D03*
X188000000Y-66000000D03*
D11*
X199000000Y-63000000D03*
X199000000Y-80000000D03*
X155000000Y-63000000D03*
X155000000Y-80000000D03*
D12*
X177100000Y-68650000D03*
X177100000Y-70150000D03*
D13*
X178550000Y-66800000D03*
X177050000Y-66800000D03*
X171750000Y-82100000D03*
X170250000Y-82100000D03*
X186350000Y-82500000D03*
X187850000Y-82500000D03*
D14*
X187700000Y-74160000D03*
X190240000Y-76700000D03*
X187700000Y-79240000D03*
X185160000Y-76700000D03*
D15*
X162000000Y-69460000D03*
D16*
X162000000Y-72000000D03*
D15*
X162000000Y-83080000D03*
X162000000Y-80540000D03*
D16*
X162000000Y-78000000D03*
D14*
X174400000Y-64000000D03*
X166800000Y-64000000D03*
D17*
X177000000Y-65450000D03*
X177000000Y-63950000D03*
X178600000Y-65450000D03*
X178600000Y-63950000D03*
D18*
X171750000Y-83600000D03*
X170250000Y-83600000D03*
D17*
X191400000Y-63650000D03*
X191400000Y-65150000D03*
X191400000Y-66450000D03*
X191400000Y-67950000D03*
X177100000Y-71750000D03*
X177100000Y-73250000D03*
X191400000Y-62350000D03*
X191400000Y-60850000D03*
X182900000Y-71750000D03*
X182900000Y-73250000D03*
X181200000Y-73250000D03*
X181200000Y-71750000D03*
D19*
X179200000Y-82380000D03*
X179200000Y-79840000D03*
X179200000Y-77300000D03*
D20*
X174620000Y-72000000D03*
X167000000Y-79620000D03*
X174620000Y-74540000D03*
X167000000Y-77080000D03*
X174620000Y-77080000D03*
X167000000Y-74540000D03*
X174620000Y-79620000D03*
D21*
X167000000Y-72000000D03*
D22*
X187640000Y-61600000D03*
X182560000Y-61600000D03*
X185100000Y-61600000D03*
M02*
