G04 #@! TF.GenerationSoftware,KiCad,Pcbnew,(2017-12-14 revision b47a06e42)-master*
G04 #@! TF.CreationDate,2017-12-14T23:45:36+01:00*
G04 #@! TF.ProjectId,LDR_MLX,4C44525F4D4C582E6B696361645F7063,rev?*
G04 #@! TF.SameCoordinates,Original*
G04 #@! TF.FileFunction,Copper,L1,Top,Signal*
G04 #@! TF.FilePolarity,Positive*
%FSLAX46Y46*%
G04 Gerber Fmt 4.6, Leading zero omitted, Abs format (unit mm)*
G04 Created by KiCad (PCBNEW (2017-12-14 revision b47a06e42)-master) date Thu Dec 14 23:45:36 2017*
%MOMM*%
%LPD*%
G01*
G04 APERTURE LIST*
%ADD10R,1.000000X1.250000*%
%ADD11R,0.750000X0.800000*%
%ADD12R,0.800000X0.750000*%
%ADD13C,1.600000*%
%ADD14O,1.700000X1.700000*%
%ADD15R,1.700000X1.700000*%
%ADD16R,0.900000X0.500000*%
%ADD17R,0.500000X0.900000*%
%ADD18C,1.440000*%
%ADD19O,2.400000X1.600000*%
%ADD20R,2.400000X1.600000*%
%ADD21O,2.032000X2.540000*%
%ADD22C,0.800000*%
%ADD23C,0.250000*%
%ADD24C,0.400000*%
%ADD25C,0.254000*%
G04 APERTURE END LIST*
D10*
X181100000Y-66000000D03*
X183100000Y-66000000D03*
X186000000Y-66000000D03*
X188000000Y-66000000D03*
D11*
X177100000Y-68650000D03*
X177100000Y-70150000D03*
D12*
X178550000Y-66800000D03*
X177050000Y-66800000D03*
X171750000Y-82100000D03*
X170250000Y-82100000D03*
X186350000Y-82500000D03*
X187850000Y-82500000D03*
D13*
X187700000Y-74160000D03*
X190240000Y-76700000D03*
X187700000Y-79240000D03*
X185160000Y-76700000D03*
D14*
X162000000Y-69460000D03*
D15*
X162000000Y-72000000D03*
D14*
X162000000Y-83080000D03*
X162000000Y-80540000D03*
D15*
X162000000Y-78000000D03*
D13*
X174400000Y-64000000D03*
X166800000Y-64000000D03*
D16*
X177000000Y-65450000D03*
X177000000Y-63950000D03*
X178600000Y-65450000D03*
X178600000Y-63950000D03*
D17*
X171750000Y-83600000D03*
X170250000Y-83600000D03*
D16*
X191400000Y-63650000D03*
X191400000Y-65150000D03*
X191400000Y-66450000D03*
X191400000Y-67950000D03*
X177100000Y-71750000D03*
X177100000Y-73250000D03*
X191400000Y-62350000D03*
X191400000Y-60850000D03*
X182900000Y-71750000D03*
X182900000Y-73250000D03*
X181200000Y-73250000D03*
X181200000Y-71750000D03*
D18*
X179200000Y-82380000D03*
X179200000Y-79840000D03*
X179200000Y-77300000D03*
D19*
X174620000Y-72000000D03*
X167000000Y-79620000D03*
X174620000Y-74540000D03*
X167000000Y-77080000D03*
X174620000Y-77080000D03*
X167000000Y-74540000D03*
X174620000Y-79620000D03*
D20*
X167000000Y-72000000D03*
D21*
X187640000Y-61600000D03*
X182560000Y-61600000D03*
X185100000Y-61600000D03*
D22*
X169400000Y-74540000D03*
X175600000Y-67200000D03*
X188600000Y-64500000D03*
X185100000Y-83400000D03*
X191000000Y-75300000D03*
X178400000Y-68400000D03*
X180600000Y-64300000D03*
X175500000Y-65700000D03*
D23*
X178550000Y-66800000D02*
X178550000Y-65500000D01*
X178550000Y-65500000D02*
X178600000Y-65450000D01*
X170250000Y-83600000D02*
X170250000Y-82100000D01*
X177050000Y-66800000D02*
X176000000Y-66800000D01*
X175600000Y-67200000D02*
X176000000Y-66800000D01*
X170250000Y-82100000D02*
X170250000Y-75150000D01*
X169640000Y-74540000D02*
X169400000Y-74540000D01*
X169400000Y-74540000D02*
X167000000Y-74540000D01*
X170250000Y-75150000D02*
X169640000Y-74540000D01*
D24*
X182900000Y-71750000D02*
X182900000Y-69400000D01*
X183600000Y-68700000D02*
X183600000Y-66000000D01*
X182900000Y-69400000D02*
X183600000Y-68700000D01*
X177100000Y-71750000D02*
X177100000Y-70150000D01*
X177100000Y-70150000D02*
X177050000Y-70150000D01*
X175200000Y-72000000D02*
X174620000Y-72000000D01*
X177100000Y-70150000D02*
X173350000Y-70150000D01*
X173350000Y-70150000D02*
X172660000Y-69460000D01*
X172660000Y-69460000D02*
X162000000Y-69460000D01*
X177100000Y-71750000D02*
X174870000Y-71750000D01*
X174870000Y-71750000D02*
X174620000Y-72000000D01*
X181200000Y-71750000D02*
X177100000Y-71750000D01*
X182900000Y-71750000D02*
X181200000Y-71750000D01*
X182560000Y-61600000D02*
X182560000Y-64960000D01*
X182560000Y-64960000D02*
X183600000Y-66000000D01*
X162000000Y-69460000D02*
X162000000Y-66700000D01*
X164700000Y-64000000D02*
X166800000Y-64000000D01*
X162000000Y-66700000D02*
X164700000Y-64000000D01*
X188000000Y-66000000D02*
X188000000Y-65100000D01*
X188000000Y-65100000D02*
X188600000Y-64500000D01*
D23*
X188000000Y-66000000D02*
X188000000Y-66700000D01*
X190450000Y-67950000D02*
X191400000Y-67950000D01*
X189250000Y-67950000D02*
X190450000Y-67950000D01*
X188000000Y-66700000D02*
X189250000Y-67950000D01*
D24*
X186350000Y-82500000D02*
X186000000Y-82500000D01*
X186000000Y-82500000D02*
X185100000Y-83400000D01*
X190240000Y-76700000D02*
X190240000Y-76060000D01*
X190240000Y-76060000D02*
X191000000Y-75300000D01*
X177100000Y-68650000D02*
X178150000Y-68650000D01*
X178150000Y-68650000D02*
X178400000Y-68400000D01*
X180600000Y-66000000D02*
X180600000Y-64300000D01*
X179200000Y-82380000D02*
X179200000Y-79840000D01*
X177000000Y-65450000D02*
X175750000Y-65450000D01*
X175750000Y-65450000D02*
X175500000Y-65700000D01*
D23*
X171750000Y-83600000D02*
X171750000Y-82100000D01*
X167000000Y-72000000D02*
X168800000Y-72000000D01*
X173020000Y-79620000D02*
X174620000Y-79620000D01*
X171600000Y-78200000D02*
X173020000Y-79620000D01*
X171600000Y-74800000D02*
X171600000Y-78200000D01*
X168800000Y-72000000D02*
X171600000Y-74800000D01*
X171750000Y-82100000D02*
X172140000Y-82100000D01*
X172140000Y-82100000D02*
X174620000Y-79620000D01*
X185100000Y-61600000D02*
X185100000Y-61100000D01*
X185100000Y-61100000D02*
X186400000Y-59800000D01*
X190350000Y-59800000D02*
X191400000Y-60850000D01*
X186400000Y-59800000D02*
X190350000Y-59800000D01*
D24*
X185500000Y-66000000D02*
X185500000Y-64300000D01*
X185100000Y-63900000D02*
X185100000Y-61600000D01*
X185500000Y-64300000D02*
X185100000Y-63900000D01*
X185550000Y-66050000D02*
X185550000Y-69950000D01*
X189100000Y-75700000D02*
X188600000Y-76200000D01*
X188600000Y-76200000D02*
X188600000Y-78100000D01*
X188600000Y-78100000D02*
X189100000Y-78600000D01*
X189100000Y-78600000D02*
X189100000Y-80800000D01*
X189100000Y-73500000D02*
X189100000Y-75500000D01*
X185550000Y-69950000D02*
X189100000Y-73500000D01*
X189100000Y-75500000D02*
X189100000Y-75700000D01*
X188600000Y-82500000D02*
X187850000Y-82500000D01*
X189100000Y-82000000D02*
X188600000Y-82500000D01*
X189100000Y-80800000D02*
X189100000Y-82000000D01*
X185550000Y-66050000D02*
X185500000Y-66000000D01*
X187850000Y-82500000D02*
X187850000Y-79390000D01*
X187850000Y-79390000D02*
X187700000Y-79240000D01*
D23*
X182900000Y-73250000D02*
X186790000Y-73250000D01*
X186790000Y-73250000D02*
X187700000Y-74160000D01*
X185160000Y-76700000D02*
X185160000Y-76060000D01*
X185160000Y-76060000D02*
X183300000Y-74200000D01*
X181900000Y-74200000D02*
X181200000Y-73500000D01*
X183300000Y-74200000D02*
X181900000Y-74200000D01*
X181200000Y-73500000D02*
X181200000Y-73250000D01*
X174620000Y-74540000D02*
X173740000Y-74540000D01*
X173740000Y-74540000D02*
X169800000Y-70600000D01*
X169800000Y-70600000D02*
X165500000Y-70600000D01*
X165500000Y-70600000D02*
X164700000Y-71400000D01*
X164700000Y-71400000D02*
X164700000Y-75300000D01*
X164700000Y-75300000D02*
X162000000Y-78000000D01*
X178600000Y-63950000D02*
X177000000Y-63950000D01*
X174400000Y-64000000D02*
X176950000Y-64000000D01*
X176950000Y-64000000D02*
X177000000Y-63950000D01*
X191400000Y-62350000D02*
X191400000Y-63650000D01*
X187640000Y-61600000D02*
X189000000Y-61600000D01*
X189750000Y-62350000D02*
X191400000Y-62350000D01*
X189000000Y-61600000D02*
X189750000Y-62350000D01*
X187050000Y-62190000D02*
X187640000Y-61600000D01*
X191400000Y-65150000D02*
X191400000Y-66450000D01*
X177100000Y-73250000D02*
X177100000Y-75200000D01*
X177100000Y-75200000D02*
X179200000Y-77300000D01*
X174620000Y-77080000D02*
X178980000Y-77080000D01*
X178980000Y-77080000D02*
X179200000Y-77300000D01*
D25*
G36*
X194873000Y-84598000D02*
X159127000Y-84598000D01*
X159127000Y-83080000D01*
X160799941Y-83080000D01*
X160889535Y-83530418D01*
X161144676Y-83912265D01*
X161526523Y-84167406D01*
X161976941Y-84257000D01*
X162023059Y-84257000D01*
X162473477Y-84167406D01*
X162855324Y-83912265D01*
X163110465Y-83530418D01*
X163200059Y-83080000D01*
X163110465Y-82629582D01*
X162855324Y-82247735D01*
X162473477Y-81992594D01*
X162023059Y-81903000D01*
X161976941Y-81903000D01*
X161526523Y-81992594D01*
X161144676Y-82247735D01*
X160889535Y-82629582D01*
X160799941Y-83080000D01*
X159127000Y-83080000D01*
X159127000Y-80540000D01*
X160799941Y-80540000D01*
X160889535Y-80990418D01*
X161144676Y-81372265D01*
X161526523Y-81627406D01*
X161976941Y-81717000D01*
X162023059Y-81717000D01*
X162473477Y-81627406D01*
X162855324Y-81372265D01*
X163110465Y-80990418D01*
X163200059Y-80540000D01*
X163110465Y-80089582D01*
X163029922Y-79969039D01*
X165208096Y-79969039D01*
X165225633Y-80051819D01*
X165495500Y-80544896D01*
X165933517Y-80897166D01*
X166473000Y-81055000D01*
X166873000Y-81055000D01*
X166873000Y-79747000D01*
X167127000Y-79747000D01*
X167127000Y-81055000D01*
X167527000Y-81055000D01*
X168066483Y-80897166D01*
X168504500Y-80544896D01*
X168774367Y-80051819D01*
X168791904Y-79969039D01*
X168669915Y-79747000D01*
X167127000Y-79747000D01*
X166873000Y-79747000D01*
X165330085Y-79747000D01*
X165208096Y-79969039D01*
X163029922Y-79969039D01*
X162855324Y-79707735D01*
X162473477Y-79452594D01*
X162023059Y-79363000D01*
X161976941Y-79363000D01*
X161526523Y-79452594D01*
X161144676Y-79707735D01*
X160889535Y-80089582D01*
X160799941Y-80540000D01*
X159127000Y-80540000D01*
X159127000Y-77150000D01*
X160816594Y-77150000D01*
X160816594Y-78850000D01*
X160841973Y-78977589D01*
X160914246Y-79085754D01*
X161022411Y-79158027D01*
X161150000Y-79183406D01*
X162850000Y-79183406D01*
X162977589Y-79158027D01*
X163085754Y-79085754D01*
X163158027Y-78977589D01*
X163183406Y-78850000D01*
X163183406Y-77455818D01*
X163210185Y-77429039D01*
X165208096Y-77429039D01*
X165225633Y-77511819D01*
X165495500Y-78004896D01*
X165924607Y-78350000D01*
X165495500Y-78695104D01*
X165225633Y-79188181D01*
X165208096Y-79270961D01*
X165330085Y-79493000D01*
X166873000Y-79493000D01*
X166873000Y-77207000D01*
X167127000Y-77207000D01*
X167127000Y-79493000D01*
X168669915Y-79493000D01*
X168791904Y-79270961D01*
X168774367Y-79188181D01*
X168504500Y-78695104D01*
X168075393Y-78350000D01*
X168504500Y-78004896D01*
X168774367Y-77511819D01*
X168791904Y-77429039D01*
X168669915Y-77207000D01*
X167127000Y-77207000D01*
X166873000Y-77207000D01*
X165330085Y-77207000D01*
X165208096Y-77429039D01*
X163210185Y-77429039D01*
X163908263Y-76730961D01*
X165208096Y-76730961D01*
X165330085Y-76953000D01*
X166873000Y-76953000D01*
X166873000Y-75667000D01*
X167127000Y-75667000D01*
X167127000Y-76953000D01*
X168669915Y-76953000D01*
X168791904Y-76730961D01*
X168774367Y-76648181D01*
X168504500Y-76155104D01*
X168066483Y-75802834D01*
X167532471Y-75646601D01*
X167861200Y-75581212D01*
X168226825Y-75336909D01*
X168457286Y-74992000D01*
X168823974Y-74992000D01*
X168987650Y-75155961D01*
X169254756Y-75266874D01*
X169543975Y-75267126D01*
X169674125Y-75213349D01*
X169798000Y-75337224D01*
X169798000Y-81401937D01*
X169722411Y-81416973D01*
X169614246Y-81489246D01*
X169541973Y-81597411D01*
X169516594Y-81725000D01*
X169516594Y-82475000D01*
X169541973Y-82602589D01*
X169614246Y-82710754D01*
X169722411Y-82783027D01*
X169798000Y-82798063D01*
X169798000Y-82891692D01*
X169764246Y-82914246D01*
X169691973Y-83022411D01*
X169666594Y-83150000D01*
X169666594Y-84050000D01*
X169691973Y-84177589D01*
X169764246Y-84285754D01*
X169872411Y-84358027D01*
X170000000Y-84383406D01*
X170500000Y-84383406D01*
X170627589Y-84358027D01*
X170735754Y-84285754D01*
X170808027Y-84177589D01*
X170833406Y-84050000D01*
X170833406Y-83150000D01*
X170808027Y-83022411D01*
X170735754Y-82914246D01*
X170702000Y-82891692D01*
X170702000Y-82798063D01*
X170777589Y-82783027D01*
X170885754Y-82710754D01*
X170958027Y-82602589D01*
X170983406Y-82475000D01*
X170983406Y-81725000D01*
X170958027Y-81597411D01*
X170885754Y-81489246D01*
X170777589Y-81416973D01*
X170702000Y-81401937D01*
X170702000Y-75150000D01*
X170667594Y-74977027D01*
X170569612Y-74830388D01*
X170121406Y-74382182D01*
X170016680Y-74128725D01*
X169812350Y-73924039D01*
X169545244Y-73813126D01*
X169256025Y-73812874D01*
X168988725Y-73923320D01*
X168823758Y-74088000D01*
X168457286Y-74088000D01*
X168226825Y-73743091D01*
X167861200Y-73498788D01*
X167429916Y-73413000D01*
X166570084Y-73413000D01*
X166138800Y-73498788D01*
X165773175Y-73743091D01*
X165528872Y-74108716D01*
X165443084Y-74540000D01*
X165528872Y-74971284D01*
X165773175Y-75336909D01*
X166138800Y-75581212D01*
X166467529Y-75646601D01*
X165933517Y-75802834D01*
X165495500Y-76155104D01*
X165225633Y-76648181D01*
X165208096Y-76730961D01*
X163908263Y-76730961D01*
X165019613Y-75619612D01*
X165117594Y-75472973D01*
X165152000Y-75300000D01*
X165152000Y-71587224D01*
X165466594Y-71272630D01*
X165466594Y-72800000D01*
X165491973Y-72927589D01*
X165564246Y-73035754D01*
X165672411Y-73108027D01*
X165800000Y-73133406D01*
X168200000Y-73133406D01*
X168327589Y-73108027D01*
X168435754Y-73035754D01*
X168508027Y-72927589D01*
X168533406Y-72800000D01*
X168533406Y-72452000D01*
X168612776Y-72452000D01*
X171148000Y-74987224D01*
X171148000Y-78200000D01*
X171182406Y-78372973D01*
X171280388Y-78519612D01*
X172700388Y-79939612D01*
X172847027Y-80037594D01*
X173020000Y-80072000D01*
X173162714Y-80072000D01*
X173309338Y-80291438D01*
X172199363Y-81401413D01*
X172150000Y-81391594D01*
X171350000Y-81391594D01*
X171222411Y-81416973D01*
X171114246Y-81489246D01*
X171041973Y-81597411D01*
X171016594Y-81725000D01*
X171016594Y-82475000D01*
X171041973Y-82602589D01*
X171114246Y-82710754D01*
X171222411Y-82783027D01*
X171298000Y-82798063D01*
X171298000Y-82891692D01*
X171264246Y-82914246D01*
X171191973Y-83022411D01*
X171166594Y-83150000D01*
X171166594Y-84050000D01*
X171191973Y-84177589D01*
X171264246Y-84285754D01*
X171372411Y-84358027D01*
X171500000Y-84383406D01*
X172000000Y-84383406D01*
X172127589Y-84358027D01*
X172235754Y-84285754D01*
X172308027Y-84177589D01*
X172333406Y-84050000D01*
X172333406Y-83329774D01*
X178429831Y-83329774D01*
X178494131Y-83567611D01*
X179002342Y-83747333D01*
X179540644Y-83718892D01*
X179905869Y-83567611D01*
X179970169Y-83329774D01*
X179200000Y-82559605D01*
X178429831Y-83329774D01*
X172333406Y-83329774D01*
X172333406Y-83150000D01*
X172308027Y-83022411D01*
X172235754Y-82914246D01*
X172202000Y-82891692D01*
X172202000Y-82798063D01*
X172277589Y-82783027D01*
X172385754Y-82710754D01*
X172458027Y-82602589D01*
X172483406Y-82475000D01*
X172483406Y-82395818D01*
X172696882Y-82182342D01*
X177832667Y-82182342D01*
X177861108Y-82720644D01*
X178012389Y-83085869D01*
X178250226Y-83150169D01*
X179020395Y-82380000D01*
X179379605Y-82380000D01*
X180149774Y-83150169D01*
X180387611Y-83085869D01*
X180493744Y-82785750D01*
X185315000Y-82785750D01*
X185315000Y-83001310D01*
X185411673Y-83234699D01*
X185590302Y-83413327D01*
X185823691Y-83510000D01*
X186064250Y-83510000D01*
X186223000Y-83351250D01*
X186223000Y-82627000D01*
X185473750Y-82627000D01*
X185315000Y-82785750D01*
X180493744Y-82785750D01*
X180567333Y-82577658D01*
X180538892Y-82039356D01*
X180522048Y-81998690D01*
X185315000Y-81998690D01*
X185315000Y-82214250D01*
X185473750Y-82373000D01*
X186223000Y-82373000D01*
X186223000Y-81648750D01*
X186064250Y-81490000D01*
X185823691Y-81490000D01*
X185590302Y-81586673D01*
X185411673Y-81765301D01*
X185315000Y-81998690D01*
X180522048Y-81998690D01*
X180387611Y-81674131D01*
X180149774Y-81609831D01*
X179379605Y-82380000D01*
X179020395Y-82380000D01*
X178250226Y-81609831D01*
X178012389Y-81674131D01*
X177832667Y-82182342D01*
X172696882Y-82182342D01*
X174089450Y-80789774D01*
X178429831Y-80789774D01*
X178494131Y-81027611D01*
X178708728Y-81103500D01*
X178494131Y-81192389D01*
X178429831Y-81430226D01*
X179200000Y-82200395D01*
X179970169Y-81430226D01*
X179905869Y-81192389D01*
X179691272Y-81116500D01*
X179905869Y-81027611D01*
X179970169Y-80789774D01*
X179200000Y-80019605D01*
X178429831Y-80789774D01*
X174089450Y-80789774D01*
X174141824Y-80737400D01*
X174190084Y-80747000D01*
X175049916Y-80747000D01*
X175481200Y-80661212D01*
X175846825Y-80416909D01*
X176091128Y-80051284D01*
X176172471Y-79642342D01*
X177832667Y-79642342D01*
X177861108Y-80180644D01*
X178012389Y-80545869D01*
X178250226Y-80610169D01*
X179020395Y-79840000D01*
X179379605Y-79840000D01*
X180149774Y-80610169D01*
X180387611Y-80545869D01*
X180567333Y-80037658D01*
X180538892Y-79499356D01*
X180387611Y-79134131D01*
X180149774Y-79069831D01*
X179379605Y-79840000D01*
X179020395Y-79840000D01*
X178250226Y-79069831D01*
X178012389Y-79134131D01*
X177832667Y-79642342D01*
X176172471Y-79642342D01*
X176176916Y-79620000D01*
X176091128Y-79188716D01*
X175891684Y-78890226D01*
X178429831Y-78890226D01*
X179200000Y-79660395D01*
X179970169Y-78890226D01*
X179905869Y-78652389D01*
X179397658Y-78472667D01*
X178859356Y-78501108D01*
X178494131Y-78652389D01*
X178429831Y-78890226D01*
X175891684Y-78890226D01*
X175846825Y-78823091D01*
X175481200Y-78578788D01*
X175049916Y-78493000D01*
X174190084Y-78493000D01*
X173758800Y-78578788D01*
X173393175Y-78823091D01*
X173180542Y-79141318D01*
X172052000Y-78012776D01*
X172052000Y-77080000D01*
X173063084Y-77080000D01*
X173148872Y-77511284D01*
X173393175Y-77876909D01*
X173758800Y-78121212D01*
X174190084Y-78207000D01*
X175049916Y-78207000D01*
X175481200Y-78121212D01*
X175846825Y-77876909D01*
X176077286Y-77532000D01*
X178163005Y-77532000D01*
X178311879Y-77892303D01*
X178606148Y-78187086D01*
X178990825Y-78346818D01*
X179407348Y-78347181D01*
X179792303Y-78188121D01*
X180087086Y-77893852D01*
X180246818Y-77509175D01*
X180247181Y-77092652D01*
X180088121Y-76707697D01*
X179793852Y-76412914D01*
X179409175Y-76253182D01*
X178992652Y-76252819D01*
X178850698Y-76311473D01*
X177552000Y-75012776D01*
X177552000Y-73833008D01*
X177677589Y-73808027D01*
X177785754Y-73735754D01*
X177858027Y-73627589D01*
X177883406Y-73500000D01*
X177883406Y-73000000D01*
X177858027Y-72872411D01*
X177785754Y-72764246D01*
X177677589Y-72691973D01*
X177550000Y-72666594D01*
X176650000Y-72666594D01*
X176522411Y-72691973D01*
X176414246Y-72764246D01*
X176341973Y-72872411D01*
X176316594Y-73000000D01*
X176316594Y-73500000D01*
X176341973Y-73627589D01*
X176414246Y-73735754D01*
X176522411Y-73808027D01*
X176648000Y-73833008D01*
X176648000Y-75200000D01*
X176682406Y-75372973D01*
X176780388Y-75519612D01*
X177888775Y-76628000D01*
X176077286Y-76628000D01*
X175846825Y-76283091D01*
X175481200Y-76038788D01*
X175049916Y-75953000D01*
X174190084Y-75953000D01*
X173758800Y-76038788D01*
X173393175Y-76283091D01*
X173148872Y-76648716D01*
X173063084Y-77080000D01*
X172052000Y-77080000D01*
X172052000Y-74800000D01*
X172017594Y-74627027D01*
X171919612Y-74480388D01*
X169119612Y-71680388D01*
X168972973Y-71582406D01*
X168800000Y-71548000D01*
X168533406Y-71548000D01*
X168533406Y-71200000D01*
X168508027Y-71072411D01*
X168494389Y-71052000D01*
X169612776Y-71052000D01*
X173069337Y-74508562D01*
X173063084Y-74540000D01*
X173148872Y-74971284D01*
X173393175Y-75336909D01*
X173758800Y-75581212D01*
X174190084Y-75667000D01*
X175049916Y-75667000D01*
X175481200Y-75581212D01*
X175846825Y-75336909D01*
X176091128Y-74971284D01*
X176176916Y-74540000D01*
X176091128Y-74108716D01*
X175846825Y-73743091D01*
X175481200Y-73498788D01*
X175049916Y-73413000D01*
X174190084Y-73413000D01*
X173758800Y-73498788D01*
X173506557Y-73667332D01*
X170119612Y-70280388D01*
X169972973Y-70182406D01*
X169800000Y-70148000D01*
X165500000Y-70148000D01*
X165327027Y-70182406D01*
X165180388Y-70280388D01*
X164380388Y-71080388D01*
X164282406Y-71227027D01*
X164248000Y-71400000D01*
X164248000Y-75112775D01*
X162544182Y-76816594D01*
X161150000Y-76816594D01*
X161022411Y-76841973D01*
X160914246Y-76914246D01*
X160841973Y-77022411D01*
X160816594Y-77150000D01*
X159127000Y-77150000D01*
X159127000Y-72285750D01*
X160515000Y-72285750D01*
X160515000Y-72976310D01*
X160611673Y-73209699D01*
X160790302Y-73388327D01*
X161023691Y-73485000D01*
X161714250Y-73485000D01*
X161873000Y-73326250D01*
X161873000Y-72127000D01*
X162127000Y-72127000D01*
X162127000Y-73326250D01*
X162285750Y-73485000D01*
X162976309Y-73485000D01*
X163209698Y-73388327D01*
X163388327Y-73209699D01*
X163485000Y-72976310D01*
X163485000Y-72285750D01*
X163326250Y-72127000D01*
X162127000Y-72127000D01*
X161873000Y-72127000D01*
X160673750Y-72127000D01*
X160515000Y-72285750D01*
X159127000Y-72285750D01*
X159127000Y-71023690D01*
X160515000Y-71023690D01*
X160515000Y-71714250D01*
X160673750Y-71873000D01*
X161873000Y-71873000D01*
X161873000Y-70673750D01*
X161801316Y-70602066D01*
X161976941Y-70637000D01*
X162023059Y-70637000D01*
X162198684Y-70602066D01*
X162127000Y-70673750D01*
X162127000Y-71873000D01*
X163326250Y-71873000D01*
X163485000Y-71714250D01*
X163485000Y-71023690D01*
X163388327Y-70790301D01*
X163209698Y-70611673D01*
X162976309Y-70515000D01*
X162521976Y-70515000D01*
X162855324Y-70292265D01*
X163059295Y-69987000D01*
X172441710Y-69987000D01*
X172977354Y-70522645D01*
X173014412Y-70547406D01*
X173148326Y-70636885D01*
X173350000Y-70677000D01*
X176416856Y-70677000D01*
X176416973Y-70677589D01*
X176489246Y-70785754D01*
X176573000Y-70841716D01*
X176573000Y-71181910D01*
X176522411Y-71191973D01*
X176475975Y-71223000D01*
X175860128Y-71223000D01*
X175846825Y-71203091D01*
X175481200Y-70958788D01*
X175049916Y-70873000D01*
X174190084Y-70873000D01*
X173758800Y-70958788D01*
X173393175Y-71203091D01*
X173148872Y-71568716D01*
X173063084Y-72000000D01*
X173148872Y-72431284D01*
X173393175Y-72796909D01*
X173758800Y-73041212D01*
X174190084Y-73127000D01*
X175049916Y-73127000D01*
X175481200Y-73041212D01*
X175846825Y-72796909D01*
X176091128Y-72431284D01*
X176121817Y-72277000D01*
X176475975Y-72277000D01*
X176522411Y-72308027D01*
X176650000Y-72333406D01*
X177550000Y-72333406D01*
X177677589Y-72308027D01*
X177724025Y-72277000D01*
X180575975Y-72277000D01*
X180622411Y-72308027D01*
X180750000Y-72333406D01*
X181650000Y-72333406D01*
X181777589Y-72308027D01*
X181824025Y-72277000D01*
X182275975Y-72277000D01*
X182322411Y-72308027D01*
X182450000Y-72333406D01*
X183350000Y-72333406D01*
X183477589Y-72308027D01*
X183585754Y-72235754D01*
X183658027Y-72127589D01*
X183683406Y-72000000D01*
X183683406Y-71500000D01*
X183658027Y-71372411D01*
X183585754Y-71264246D01*
X183477589Y-71191973D01*
X183427000Y-71181910D01*
X183427000Y-69618290D01*
X183972645Y-69072646D01*
X184086884Y-68901675D01*
X184086885Y-68901674D01*
X184127000Y-68700000D01*
X184127000Y-66000000D01*
X184105512Y-65891973D01*
X184086885Y-65798325D01*
X183972645Y-65627355D01*
X183933406Y-65588116D01*
X183933406Y-65375000D01*
X183908027Y-65247411D01*
X183835754Y-65139246D01*
X183727589Y-65066973D01*
X183600000Y-65041594D01*
X183386884Y-65041594D01*
X183087000Y-64741710D01*
X183087000Y-63117333D01*
X183509644Y-62834931D01*
X183800770Y-62399231D01*
X183830000Y-62252282D01*
X183859230Y-62399231D01*
X184150356Y-62834931D01*
X184573000Y-63117333D01*
X184573000Y-63900000D01*
X184613115Y-64101675D01*
X184727355Y-64272645D01*
X184973000Y-64518291D01*
X184973000Y-66000000D01*
X185013115Y-66201675D01*
X185023000Y-66216469D01*
X185023000Y-69950000D01*
X185063115Y-70151675D01*
X185177355Y-70322645D01*
X187887873Y-73033163D01*
X187476809Y-73032805D01*
X187289446Y-73110222D01*
X187109612Y-72930388D01*
X186962973Y-72832406D01*
X186790000Y-72798000D01*
X183608308Y-72798000D01*
X183585754Y-72764246D01*
X183477589Y-72691973D01*
X183350000Y-72666594D01*
X182450000Y-72666594D01*
X182322411Y-72691973D01*
X182214246Y-72764246D01*
X182141973Y-72872411D01*
X182116594Y-73000000D01*
X182116594Y-73500000D01*
X182141973Y-73627589D01*
X182214246Y-73735754D01*
X182232574Y-73748000D01*
X182087225Y-73748000D01*
X181959485Y-73620260D01*
X181983406Y-73500000D01*
X181983406Y-73000000D01*
X181958027Y-72872411D01*
X181885754Y-72764246D01*
X181777589Y-72691973D01*
X181650000Y-72666594D01*
X180750000Y-72666594D01*
X180622411Y-72691973D01*
X180514246Y-72764246D01*
X180441973Y-72872411D01*
X180416594Y-73000000D01*
X180416594Y-73500000D01*
X180441973Y-73627589D01*
X180514246Y-73735754D01*
X180622411Y-73808027D01*
X180750000Y-73833406D01*
X180894182Y-73833406D01*
X181580387Y-74519612D01*
X181727026Y-74617594D01*
X181755724Y-74623302D01*
X181900000Y-74652000D01*
X183112776Y-74652000D01*
X184363479Y-75902703D01*
X184205133Y-76060772D01*
X184033196Y-76474842D01*
X184032805Y-76923191D01*
X184204019Y-77337560D01*
X184520772Y-77654867D01*
X184934842Y-77826804D01*
X185383191Y-77827195D01*
X185797560Y-77655981D01*
X186114867Y-77339228D01*
X186286804Y-76925158D01*
X186287195Y-76476809D01*
X186115981Y-76062440D01*
X185799228Y-75745133D01*
X185385158Y-75573196D01*
X185312357Y-75573133D01*
X183619612Y-73880388D01*
X183494453Y-73796759D01*
X183585754Y-73735754D01*
X183608308Y-73702000D01*
X186602776Y-73702000D01*
X186650192Y-73749416D01*
X186573196Y-73934842D01*
X186572805Y-74383191D01*
X186744019Y-74797560D01*
X187060772Y-75114867D01*
X187474842Y-75286804D01*
X187923191Y-75287195D01*
X188337560Y-75115981D01*
X188573000Y-74880952D01*
X188573000Y-75481710D01*
X188227355Y-75827355D01*
X188113115Y-75998325D01*
X188113115Y-75998326D01*
X188073000Y-76200000D01*
X188073000Y-78100000D01*
X188089171Y-78181300D01*
X187925158Y-78113196D01*
X187476809Y-78112805D01*
X187062440Y-78284019D01*
X186745133Y-78600772D01*
X186573196Y-79014842D01*
X186572805Y-79463191D01*
X186744019Y-79877560D01*
X187060772Y-80194867D01*
X187323000Y-80303754D01*
X187323000Y-81816856D01*
X187322411Y-81816973D01*
X187312479Y-81823609D01*
X187288327Y-81765301D01*
X187109698Y-81586673D01*
X186876309Y-81490000D01*
X186635750Y-81490000D01*
X186477000Y-81648750D01*
X186477000Y-82373000D01*
X187116594Y-82373000D01*
X187116594Y-82627000D01*
X186477000Y-82627000D01*
X186477000Y-83351250D01*
X186635750Y-83510000D01*
X186876309Y-83510000D01*
X187109698Y-83413327D01*
X187288327Y-83234699D01*
X187312479Y-83176391D01*
X187322411Y-83183027D01*
X187450000Y-83208406D01*
X188250000Y-83208406D01*
X188377589Y-83183027D01*
X188485754Y-83110754D01*
X188541716Y-83027000D01*
X188600000Y-83027000D01*
X188801675Y-82986885D01*
X188972645Y-82872645D01*
X189472645Y-82372645D01*
X189586885Y-82201674D01*
X189627000Y-82000000D01*
X189627000Y-78600000D01*
X189586885Y-78398326D01*
X189472645Y-78227355D01*
X189127000Y-77881710D01*
X189127000Y-77707745D01*
X189411861Y-77707745D01*
X189485995Y-77953864D01*
X190023223Y-78146965D01*
X190593454Y-78119778D01*
X190994005Y-77953864D01*
X191068139Y-77707745D01*
X190240000Y-76879605D01*
X189411861Y-77707745D01*
X189127000Y-77707745D01*
X189127000Y-77496435D01*
X189232255Y-77528139D01*
X190060395Y-76700000D01*
X190419605Y-76700000D01*
X191247745Y-77528139D01*
X191493864Y-77454005D01*
X191686965Y-76916777D01*
X191659778Y-76346546D01*
X191493864Y-75945995D01*
X191247745Y-75871861D01*
X190419605Y-76700000D01*
X190060395Y-76700000D01*
X189452842Y-76092448D01*
X189472645Y-76072645D01*
X189586885Y-75901674D01*
X189592591Y-75872986D01*
X190240000Y-76520395D01*
X191068139Y-75692255D01*
X190994005Y-75446136D01*
X190456777Y-75253035D01*
X189886546Y-75280222D01*
X189627000Y-75387730D01*
X189627000Y-73500000D01*
X189592594Y-73327027D01*
X189586885Y-73298325D01*
X189472645Y-73127355D01*
X186077000Y-69731710D01*
X186077000Y-68233750D01*
X190315000Y-68233750D01*
X190315000Y-68326309D01*
X190411673Y-68559698D01*
X190590301Y-68738327D01*
X190823690Y-68835000D01*
X191114250Y-68835000D01*
X191273000Y-68676250D01*
X191273000Y-68075000D01*
X191527000Y-68075000D01*
X191527000Y-68676250D01*
X191685750Y-68835000D01*
X191976310Y-68835000D01*
X192209699Y-68738327D01*
X192388327Y-68559698D01*
X192485000Y-68326309D01*
X192485000Y-68233750D01*
X192326250Y-68075000D01*
X191527000Y-68075000D01*
X191273000Y-68075000D01*
X190473750Y-68075000D01*
X190315000Y-68233750D01*
X186077000Y-68233750D01*
X186077000Y-67573691D01*
X190315000Y-67573691D01*
X190315000Y-67666250D01*
X190473750Y-67825000D01*
X191273000Y-67825000D01*
X191273000Y-67223750D01*
X191527000Y-67223750D01*
X191527000Y-67825000D01*
X192326250Y-67825000D01*
X192485000Y-67666250D01*
X192485000Y-67573691D01*
X192388327Y-67340302D01*
X192209699Y-67161673D01*
X191976310Y-67065000D01*
X191685750Y-67065000D01*
X191527000Y-67223750D01*
X191273000Y-67223750D01*
X191114250Y-67065000D01*
X190823690Y-67065000D01*
X190590301Y-67161673D01*
X190411673Y-67340302D01*
X190315000Y-67573691D01*
X186077000Y-67573691D01*
X186077000Y-66958406D01*
X186500000Y-66958406D01*
X186627589Y-66933027D01*
X186735754Y-66860754D01*
X186808027Y-66752589D01*
X186833406Y-66625000D01*
X186833406Y-66285750D01*
X186865000Y-66285750D01*
X186865000Y-66751310D01*
X186961673Y-66984699D01*
X187140302Y-67163327D01*
X187373691Y-67260000D01*
X187714250Y-67260000D01*
X187873000Y-67101250D01*
X187873000Y-66127000D01*
X188127000Y-66127000D01*
X188127000Y-67101250D01*
X188285750Y-67260000D01*
X188626309Y-67260000D01*
X188859698Y-67163327D01*
X189038327Y-66984699D01*
X189135000Y-66751310D01*
X189135000Y-66285750D01*
X188976250Y-66127000D01*
X188127000Y-66127000D01*
X187873000Y-66127000D01*
X187023750Y-66127000D01*
X186865000Y-66285750D01*
X186833406Y-66285750D01*
X186833406Y-65375000D01*
X186808282Y-65248690D01*
X186865000Y-65248690D01*
X186865000Y-65714250D01*
X187023750Y-65873000D01*
X187873000Y-65873000D01*
X187873000Y-64898750D01*
X188127000Y-64898750D01*
X188127000Y-65873000D01*
X188976250Y-65873000D01*
X189135000Y-65714250D01*
X189135000Y-65248690D01*
X189038327Y-65015301D01*
X188923026Y-64900000D01*
X190616594Y-64900000D01*
X190616594Y-65400000D01*
X190641973Y-65527589D01*
X190714246Y-65635754D01*
X190822411Y-65708027D01*
X190948000Y-65733008D01*
X190948000Y-65866992D01*
X190822411Y-65891973D01*
X190714246Y-65964246D01*
X190641973Y-66072411D01*
X190616594Y-66200000D01*
X190616594Y-66700000D01*
X190641973Y-66827589D01*
X190714246Y-66935754D01*
X190822411Y-67008027D01*
X190950000Y-67033406D01*
X191850000Y-67033406D01*
X191977589Y-67008027D01*
X192085754Y-66935754D01*
X192158027Y-66827589D01*
X192183406Y-66700000D01*
X192183406Y-66200000D01*
X192158027Y-66072411D01*
X192085754Y-65964246D01*
X191977589Y-65891973D01*
X191852000Y-65866992D01*
X191852000Y-65733008D01*
X191977589Y-65708027D01*
X192085754Y-65635754D01*
X192158027Y-65527589D01*
X192183406Y-65400000D01*
X192183406Y-64900000D01*
X192158027Y-64772411D01*
X192085754Y-64664246D01*
X191977589Y-64591973D01*
X191850000Y-64566594D01*
X190950000Y-64566594D01*
X190822411Y-64591973D01*
X190714246Y-64664246D01*
X190641973Y-64772411D01*
X190616594Y-64900000D01*
X188923026Y-64900000D01*
X188859698Y-64836673D01*
X188626309Y-64740000D01*
X188285750Y-64740000D01*
X188127000Y-64898750D01*
X187873000Y-64898750D01*
X187714250Y-64740000D01*
X187373691Y-64740000D01*
X187140302Y-64836673D01*
X186961673Y-65015301D01*
X186865000Y-65248690D01*
X186808282Y-65248690D01*
X186808027Y-65247411D01*
X186735754Y-65139246D01*
X186627589Y-65066973D01*
X186500000Y-65041594D01*
X186027000Y-65041594D01*
X186027000Y-64300000D01*
X185986885Y-64098326D01*
X185921185Y-64000000D01*
X185872645Y-63927354D01*
X185627000Y-63681710D01*
X185627000Y-63117333D01*
X186049644Y-62834931D01*
X186340770Y-62399231D01*
X186370000Y-62252282D01*
X186399230Y-62399231D01*
X186690356Y-62834931D01*
X187126056Y-63126057D01*
X187640000Y-63228287D01*
X188153944Y-63126057D01*
X188589644Y-62834931D01*
X188880770Y-62399231D01*
X188927098Y-62166322D01*
X189430388Y-62669612D01*
X189577027Y-62767594D01*
X189750000Y-62802000D01*
X190691692Y-62802000D01*
X190714246Y-62835754D01*
X190822411Y-62908027D01*
X190948000Y-62933008D01*
X190948000Y-63066992D01*
X190822411Y-63091973D01*
X190714246Y-63164246D01*
X190641973Y-63272411D01*
X190616594Y-63400000D01*
X190616594Y-63900000D01*
X190641973Y-64027589D01*
X190714246Y-64135754D01*
X190822411Y-64208027D01*
X190950000Y-64233406D01*
X191850000Y-64233406D01*
X191977589Y-64208027D01*
X192085754Y-64135754D01*
X192158027Y-64027589D01*
X192183406Y-63900000D01*
X192183406Y-63400000D01*
X192158027Y-63272411D01*
X192085754Y-63164246D01*
X191977589Y-63091973D01*
X191852000Y-63066992D01*
X191852000Y-62933008D01*
X191977589Y-62908027D01*
X192085754Y-62835754D01*
X192158027Y-62727589D01*
X192183406Y-62600000D01*
X192183406Y-62100000D01*
X192158027Y-61972411D01*
X192085754Y-61864246D01*
X191977589Y-61791973D01*
X191850000Y-61766594D01*
X190950000Y-61766594D01*
X190822411Y-61791973D01*
X190714246Y-61864246D01*
X190691692Y-61898000D01*
X189937224Y-61898000D01*
X189319612Y-61280388D01*
X189172973Y-61182406D01*
X189000000Y-61148000D01*
X188949839Y-61148000D01*
X188880770Y-60800769D01*
X188589644Y-60365069D01*
X188420425Y-60252000D01*
X190162776Y-60252000D01*
X190616594Y-60705818D01*
X190616594Y-61100000D01*
X190641973Y-61227589D01*
X190714246Y-61335754D01*
X190822411Y-61408027D01*
X190950000Y-61433406D01*
X191850000Y-61433406D01*
X191977589Y-61408027D01*
X192085754Y-61335754D01*
X192158027Y-61227589D01*
X192183406Y-61100000D01*
X192183406Y-60600000D01*
X192158027Y-60472411D01*
X192085754Y-60364246D01*
X191977589Y-60291973D01*
X191850000Y-60266594D01*
X191455818Y-60266594D01*
X190669612Y-59480388D01*
X190522973Y-59382406D01*
X190350000Y-59348000D01*
X186400000Y-59348000D01*
X186227027Y-59382406D01*
X186080388Y-59480387D01*
X185507922Y-60052854D01*
X185100000Y-59971713D01*
X184586056Y-60073943D01*
X184150356Y-60365069D01*
X183859230Y-60800769D01*
X183830000Y-60947718D01*
X183800770Y-60800769D01*
X183509644Y-60365069D01*
X183073944Y-60073943D01*
X182560000Y-59971713D01*
X182046056Y-60073943D01*
X181610356Y-60365069D01*
X181319230Y-60800769D01*
X181217000Y-61314713D01*
X181217000Y-61885287D01*
X181319230Y-62399231D01*
X181610356Y-62834931D01*
X182033000Y-63117333D01*
X182033000Y-64909975D01*
X181959698Y-64836673D01*
X181726309Y-64740000D01*
X181385750Y-64740000D01*
X181227000Y-64898750D01*
X181227000Y-65873000D01*
X182076250Y-65873000D01*
X182235000Y-65714250D01*
X182235000Y-65380290D01*
X182266594Y-65411884D01*
X182266594Y-66625000D01*
X182291973Y-66752589D01*
X182364246Y-66860754D01*
X182472411Y-66933027D01*
X182600000Y-66958406D01*
X183073000Y-66958406D01*
X183073000Y-68481709D01*
X182527355Y-69027355D01*
X182413115Y-69198325D01*
X182401180Y-69258326D01*
X182373000Y-69400000D01*
X182373000Y-71181910D01*
X182322411Y-71191973D01*
X182275975Y-71223000D01*
X181824025Y-71223000D01*
X181777589Y-71191973D01*
X181650000Y-71166594D01*
X180750000Y-71166594D01*
X180622411Y-71191973D01*
X180575975Y-71223000D01*
X177724025Y-71223000D01*
X177677589Y-71191973D01*
X177627000Y-71181910D01*
X177627000Y-70841716D01*
X177710754Y-70785754D01*
X177783027Y-70677589D01*
X177808406Y-70550000D01*
X177808406Y-69750000D01*
X177783027Y-69622411D01*
X177776391Y-69612479D01*
X177834699Y-69588327D01*
X178013327Y-69409698D01*
X178110000Y-69176309D01*
X178110000Y-68935750D01*
X177951250Y-68777000D01*
X177227000Y-68777000D01*
X177227000Y-69416594D01*
X176973000Y-69416594D01*
X176973000Y-68777000D01*
X176248750Y-68777000D01*
X176090000Y-68935750D01*
X176090000Y-69176309D01*
X176186673Y-69409698D01*
X176365301Y-69588327D01*
X176423609Y-69612479D01*
X176416973Y-69622411D01*
X176416856Y-69623000D01*
X173568291Y-69623000D01*
X173032645Y-69087355D01*
X172861675Y-68973115D01*
X172660000Y-68933000D01*
X163059295Y-68933000D01*
X162855324Y-68627735D01*
X162527000Y-68408357D01*
X162527000Y-68123691D01*
X176090000Y-68123691D01*
X176090000Y-68364250D01*
X176248750Y-68523000D01*
X176973000Y-68523000D01*
X176973000Y-67773750D01*
X177227000Y-67773750D01*
X177227000Y-68523000D01*
X177951250Y-68523000D01*
X178110000Y-68364250D01*
X178110000Y-68123691D01*
X178013327Y-67890302D01*
X177834699Y-67711673D01*
X177601310Y-67615000D01*
X177385750Y-67615000D01*
X177227000Y-67773750D01*
X176973000Y-67773750D01*
X176814250Y-67615000D01*
X176598690Y-67615000D01*
X176365301Y-67711673D01*
X176186673Y-67890302D01*
X176090000Y-68123691D01*
X162527000Y-68123691D01*
X162527000Y-67343975D01*
X174872874Y-67343975D01*
X174983320Y-67611275D01*
X175187650Y-67815961D01*
X175454756Y-67926874D01*
X175743975Y-67927126D01*
X176011275Y-67816680D01*
X176215961Y-67612350D01*
X176326874Y-67345244D01*
X176326955Y-67252000D01*
X176331910Y-67252000D01*
X176341973Y-67302589D01*
X176414246Y-67410754D01*
X176522411Y-67483027D01*
X176650000Y-67508406D01*
X177450000Y-67508406D01*
X177577589Y-67483027D01*
X177685754Y-67410754D01*
X177758027Y-67302589D01*
X177783406Y-67175000D01*
X177783406Y-66425000D01*
X177758027Y-66297411D01*
X177738307Y-66267898D01*
X177809699Y-66238327D01*
X177988327Y-66059698D01*
X178012479Y-66001391D01*
X178022411Y-66008027D01*
X178098000Y-66023063D01*
X178098000Y-66101937D01*
X178022411Y-66116973D01*
X177914246Y-66189246D01*
X177841973Y-66297411D01*
X177816594Y-66425000D01*
X177816594Y-67175000D01*
X177841973Y-67302589D01*
X177914246Y-67410754D01*
X178022411Y-67483027D01*
X178150000Y-67508406D01*
X178950000Y-67508406D01*
X179077589Y-67483027D01*
X179185754Y-67410754D01*
X179258027Y-67302589D01*
X179283406Y-67175000D01*
X179283406Y-66425000D01*
X179258027Y-66297411D01*
X179250236Y-66285750D01*
X179965000Y-66285750D01*
X179965000Y-66751310D01*
X180061673Y-66984699D01*
X180240302Y-67163327D01*
X180473691Y-67260000D01*
X180814250Y-67260000D01*
X180973000Y-67101250D01*
X180973000Y-66127000D01*
X181227000Y-66127000D01*
X181227000Y-67101250D01*
X181385750Y-67260000D01*
X181726309Y-67260000D01*
X181959698Y-67163327D01*
X182138327Y-66984699D01*
X182235000Y-66751310D01*
X182235000Y-66285750D01*
X182076250Y-66127000D01*
X181227000Y-66127000D01*
X180973000Y-66127000D01*
X180123750Y-66127000D01*
X179965000Y-66285750D01*
X179250236Y-66285750D01*
X179185754Y-66189246D01*
X179077589Y-66116973D01*
X179002000Y-66101937D01*
X179002000Y-66033406D01*
X179050000Y-66033406D01*
X179177589Y-66008027D01*
X179285754Y-65935754D01*
X179358027Y-65827589D01*
X179383406Y-65700000D01*
X179383406Y-65248690D01*
X179965000Y-65248690D01*
X179965000Y-65714250D01*
X180123750Y-65873000D01*
X180973000Y-65873000D01*
X180973000Y-64898750D01*
X180814250Y-64740000D01*
X180473691Y-64740000D01*
X180240302Y-64836673D01*
X180061673Y-65015301D01*
X179965000Y-65248690D01*
X179383406Y-65248690D01*
X179383406Y-65200000D01*
X179358027Y-65072411D01*
X179285754Y-64964246D01*
X179177589Y-64891973D01*
X179050000Y-64866594D01*
X178150000Y-64866594D01*
X178022411Y-64891973D01*
X178012479Y-64898609D01*
X177988327Y-64840302D01*
X177809699Y-64661673D01*
X177576310Y-64565000D01*
X177285750Y-64565000D01*
X177127000Y-64723750D01*
X177127000Y-65325000D01*
X177816594Y-65325000D01*
X177816594Y-65575000D01*
X177127000Y-65575000D01*
X177127000Y-66091594D01*
X176873000Y-66091594D01*
X176873000Y-65575000D01*
X176073750Y-65575000D01*
X175915000Y-65733750D01*
X175915000Y-65826309D01*
X176011673Y-66059698D01*
X176190301Y-66238327D01*
X176341286Y-66300867D01*
X176331910Y-66348000D01*
X176000000Y-66348000D01*
X175827027Y-66382406D01*
X175691326Y-66473079D01*
X175456025Y-66472874D01*
X175188725Y-66583320D01*
X174984039Y-66787650D01*
X174873126Y-67054756D01*
X174872874Y-67343975D01*
X162527000Y-67343975D01*
X162527000Y-66918290D01*
X164918291Y-64527000D01*
X165798336Y-64527000D01*
X165844019Y-64637560D01*
X166160772Y-64954867D01*
X166574842Y-65126804D01*
X167023191Y-65127195D01*
X167437560Y-64955981D01*
X167754867Y-64639228D01*
X167926804Y-64225158D01*
X167926805Y-64223191D01*
X173272805Y-64223191D01*
X173444019Y-64637560D01*
X173760772Y-64954867D01*
X174174842Y-65126804D01*
X174623191Y-65127195D01*
X174752680Y-65073691D01*
X175915000Y-65073691D01*
X175915000Y-65166250D01*
X176073750Y-65325000D01*
X176873000Y-65325000D01*
X176873000Y-64723750D01*
X176714250Y-64565000D01*
X176423690Y-64565000D01*
X176190301Y-64661673D01*
X176011673Y-64840302D01*
X175915000Y-65073691D01*
X174752680Y-65073691D01*
X175037560Y-64955981D01*
X175354867Y-64639228D01*
X175432611Y-64452000D01*
X176338560Y-64452000D01*
X176422411Y-64508027D01*
X176550000Y-64533406D01*
X177450000Y-64533406D01*
X177577589Y-64508027D01*
X177685754Y-64435754D01*
X177708308Y-64402000D01*
X177891692Y-64402000D01*
X177914246Y-64435754D01*
X178022411Y-64508027D01*
X178150000Y-64533406D01*
X179050000Y-64533406D01*
X179177589Y-64508027D01*
X179285754Y-64435754D01*
X179358027Y-64327589D01*
X179383406Y-64200000D01*
X179383406Y-63700000D01*
X179358027Y-63572411D01*
X179285754Y-63464246D01*
X179177589Y-63391973D01*
X179050000Y-63366594D01*
X178150000Y-63366594D01*
X178022411Y-63391973D01*
X177914246Y-63464246D01*
X177891692Y-63498000D01*
X177708308Y-63498000D01*
X177685754Y-63464246D01*
X177577589Y-63391973D01*
X177450000Y-63366594D01*
X176550000Y-63366594D01*
X176422411Y-63391973D01*
X176314246Y-63464246D01*
X176258284Y-63548000D01*
X175432653Y-63548000D01*
X175355981Y-63362440D01*
X175039228Y-63045133D01*
X174625158Y-62873196D01*
X174176809Y-62872805D01*
X173762440Y-63044019D01*
X173445133Y-63360772D01*
X173273196Y-63774842D01*
X173272805Y-64223191D01*
X167926805Y-64223191D01*
X167927195Y-63776809D01*
X167755981Y-63362440D01*
X167439228Y-63045133D01*
X167025158Y-62873196D01*
X166576809Y-62872805D01*
X166162440Y-63044019D01*
X165845133Y-63360772D01*
X165798532Y-63473000D01*
X164700000Y-63473000D01*
X164498326Y-63513115D01*
X164327355Y-63627354D01*
X161627355Y-66327355D01*
X161513115Y-66498325D01*
X161513115Y-66498326D01*
X161473000Y-66700000D01*
X161473000Y-68408357D01*
X161144676Y-68627735D01*
X160889535Y-69009582D01*
X160799941Y-69460000D01*
X160889535Y-69910418D01*
X161144676Y-70292265D01*
X161478024Y-70515000D01*
X161023691Y-70515000D01*
X160790302Y-70611673D01*
X160611673Y-70790301D01*
X160515000Y-71023690D01*
X159127000Y-71023690D01*
X159127000Y-58402000D01*
X194873000Y-58402000D01*
X194873000Y-84598000D01*
X194873000Y-84598000D01*
G37*
X194873000Y-84598000D02*
X159127000Y-84598000D01*
X159127000Y-83080000D01*
X160799941Y-83080000D01*
X160889535Y-83530418D01*
X161144676Y-83912265D01*
X161526523Y-84167406D01*
X161976941Y-84257000D01*
X162023059Y-84257000D01*
X162473477Y-84167406D01*
X162855324Y-83912265D01*
X163110465Y-83530418D01*
X163200059Y-83080000D01*
X163110465Y-82629582D01*
X162855324Y-82247735D01*
X162473477Y-81992594D01*
X162023059Y-81903000D01*
X161976941Y-81903000D01*
X161526523Y-81992594D01*
X161144676Y-82247735D01*
X160889535Y-82629582D01*
X160799941Y-83080000D01*
X159127000Y-83080000D01*
X159127000Y-80540000D01*
X160799941Y-80540000D01*
X160889535Y-80990418D01*
X161144676Y-81372265D01*
X161526523Y-81627406D01*
X161976941Y-81717000D01*
X162023059Y-81717000D01*
X162473477Y-81627406D01*
X162855324Y-81372265D01*
X163110465Y-80990418D01*
X163200059Y-80540000D01*
X163110465Y-80089582D01*
X163029922Y-79969039D01*
X165208096Y-79969039D01*
X165225633Y-80051819D01*
X165495500Y-80544896D01*
X165933517Y-80897166D01*
X166473000Y-81055000D01*
X166873000Y-81055000D01*
X166873000Y-79747000D01*
X167127000Y-79747000D01*
X167127000Y-81055000D01*
X167527000Y-81055000D01*
X168066483Y-80897166D01*
X168504500Y-80544896D01*
X168774367Y-80051819D01*
X168791904Y-79969039D01*
X168669915Y-79747000D01*
X167127000Y-79747000D01*
X166873000Y-79747000D01*
X165330085Y-79747000D01*
X165208096Y-79969039D01*
X163029922Y-79969039D01*
X162855324Y-79707735D01*
X162473477Y-79452594D01*
X162023059Y-79363000D01*
X161976941Y-79363000D01*
X161526523Y-79452594D01*
X161144676Y-79707735D01*
X160889535Y-80089582D01*
X160799941Y-80540000D01*
X159127000Y-80540000D01*
X159127000Y-77150000D01*
X160816594Y-77150000D01*
X160816594Y-78850000D01*
X160841973Y-78977589D01*
X160914246Y-79085754D01*
X161022411Y-79158027D01*
X161150000Y-79183406D01*
X162850000Y-79183406D01*
X162977589Y-79158027D01*
X163085754Y-79085754D01*
X163158027Y-78977589D01*
X163183406Y-78850000D01*
X163183406Y-77455818D01*
X163210185Y-77429039D01*
X165208096Y-77429039D01*
X165225633Y-77511819D01*
X165495500Y-78004896D01*
X165924607Y-78350000D01*
X165495500Y-78695104D01*
X165225633Y-79188181D01*
X165208096Y-79270961D01*
X165330085Y-79493000D01*
X166873000Y-79493000D01*
X166873000Y-77207000D01*
X167127000Y-77207000D01*
X167127000Y-79493000D01*
X168669915Y-79493000D01*
X168791904Y-79270961D01*
X168774367Y-79188181D01*
X168504500Y-78695104D01*
X168075393Y-78350000D01*
X168504500Y-78004896D01*
X168774367Y-77511819D01*
X168791904Y-77429039D01*
X168669915Y-77207000D01*
X167127000Y-77207000D01*
X166873000Y-77207000D01*
X165330085Y-77207000D01*
X165208096Y-77429039D01*
X163210185Y-77429039D01*
X163908263Y-76730961D01*
X165208096Y-76730961D01*
X165330085Y-76953000D01*
X166873000Y-76953000D01*
X166873000Y-75667000D01*
X167127000Y-75667000D01*
X167127000Y-76953000D01*
X168669915Y-76953000D01*
X168791904Y-76730961D01*
X168774367Y-76648181D01*
X168504500Y-76155104D01*
X168066483Y-75802834D01*
X167532471Y-75646601D01*
X167861200Y-75581212D01*
X168226825Y-75336909D01*
X168457286Y-74992000D01*
X168823974Y-74992000D01*
X168987650Y-75155961D01*
X169254756Y-75266874D01*
X169543975Y-75267126D01*
X169674125Y-75213349D01*
X169798000Y-75337224D01*
X169798000Y-81401937D01*
X169722411Y-81416973D01*
X169614246Y-81489246D01*
X169541973Y-81597411D01*
X169516594Y-81725000D01*
X169516594Y-82475000D01*
X169541973Y-82602589D01*
X169614246Y-82710754D01*
X169722411Y-82783027D01*
X169798000Y-82798063D01*
X169798000Y-82891692D01*
X169764246Y-82914246D01*
X169691973Y-83022411D01*
X169666594Y-83150000D01*
X169666594Y-84050000D01*
X169691973Y-84177589D01*
X169764246Y-84285754D01*
X169872411Y-84358027D01*
X170000000Y-84383406D01*
X170500000Y-84383406D01*
X170627589Y-84358027D01*
X170735754Y-84285754D01*
X170808027Y-84177589D01*
X170833406Y-84050000D01*
X170833406Y-83150000D01*
X170808027Y-83022411D01*
X170735754Y-82914246D01*
X170702000Y-82891692D01*
X170702000Y-82798063D01*
X170777589Y-82783027D01*
X170885754Y-82710754D01*
X170958027Y-82602589D01*
X170983406Y-82475000D01*
X170983406Y-81725000D01*
X170958027Y-81597411D01*
X170885754Y-81489246D01*
X170777589Y-81416973D01*
X170702000Y-81401937D01*
X170702000Y-75150000D01*
X170667594Y-74977027D01*
X170569612Y-74830388D01*
X170121406Y-74382182D01*
X170016680Y-74128725D01*
X169812350Y-73924039D01*
X169545244Y-73813126D01*
X169256025Y-73812874D01*
X168988725Y-73923320D01*
X168823758Y-74088000D01*
X168457286Y-74088000D01*
X168226825Y-73743091D01*
X167861200Y-73498788D01*
X167429916Y-73413000D01*
X166570084Y-73413000D01*
X166138800Y-73498788D01*
X165773175Y-73743091D01*
X165528872Y-74108716D01*
X165443084Y-74540000D01*
X165528872Y-74971284D01*
X165773175Y-75336909D01*
X166138800Y-75581212D01*
X166467529Y-75646601D01*
X165933517Y-75802834D01*
X165495500Y-76155104D01*
X165225633Y-76648181D01*
X165208096Y-76730961D01*
X163908263Y-76730961D01*
X165019613Y-75619612D01*
X165117594Y-75472973D01*
X165152000Y-75300000D01*
X165152000Y-71587224D01*
X165466594Y-71272630D01*
X165466594Y-72800000D01*
X165491973Y-72927589D01*
X165564246Y-73035754D01*
X165672411Y-73108027D01*
X165800000Y-73133406D01*
X168200000Y-73133406D01*
X168327589Y-73108027D01*
X168435754Y-73035754D01*
X168508027Y-72927589D01*
X168533406Y-72800000D01*
X168533406Y-72452000D01*
X168612776Y-72452000D01*
X171148000Y-74987224D01*
X171148000Y-78200000D01*
X171182406Y-78372973D01*
X171280388Y-78519612D01*
X172700388Y-79939612D01*
X172847027Y-80037594D01*
X173020000Y-80072000D01*
X173162714Y-80072000D01*
X173309338Y-80291438D01*
X172199363Y-81401413D01*
X172150000Y-81391594D01*
X171350000Y-81391594D01*
X171222411Y-81416973D01*
X171114246Y-81489246D01*
X171041973Y-81597411D01*
X171016594Y-81725000D01*
X171016594Y-82475000D01*
X171041973Y-82602589D01*
X171114246Y-82710754D01*
X171222411Y-82783027D01*
X171298000Y-82798063D01*
X171298000Y-82891692D01*
X171264246Y-82914246D01*
X171191973Y-83022411D01*
X171166594Y-83150000D01*
X171166594Y-84050000D01*
X171191973Y-84177589D01*
X171264246Y-84285754D01*
X171372411Y-84358027D01*
X171500000Y-84383406D01*
X172000000Y-84383406D01*
X172127589Y-84358027D01*
X172235754Y-84285754D01*
X172308027Y-84177589D01*
X172333406Y-84050000D01*
X172333406Y-83329774D01*
X178429831Y-83329774D01*
X178494131Y-83567611D01*
X179002342Y-83747333D01*
X179540644Y-83718892D01*
X179905869Y-83567611D01*
X179970169Y-83329774D01*
X179200000Y-82559605D01*
X178429831Y-83329774D01*
X172333406Y-83329774D01*
X172333406Y-83150000D01*
X172308027Y-83022411D01*
X172235754Y-82914246D01*
X172202000Y-82891692D01*
X172202000Y-82798063D01*
X172277589Y-82783027D01*
X172385754Y-82710754D01*
X172458027Y-82602589D01*
X172483406Y-82475000D01*
X172483406Y-82395818D01*
X172696882Y-82182342D01*
X177832667Y-82182342D01*
X177861108Y-82720644D01*
X178012389Y-83085869D01*
X178250226Y-83150169D01*
X179020395Y-82380000D01*
X179379605Y-82380000D01*
X180149774Y-83150169D01*
X180387611Y-83085869D01*
X180493744Y-82785750D01*
X185315000Y-82785750D01*
X185315000Y-83001310D01*
X185411673Y-83234699D01*
X185590302Y-83413327D01*
X185823691Y-83510000D01*
X186064250Y-83510000D01*
X186223000Y-83351250D01*
X186223000Y-82627000D01*
X185473750Y-82627000D01*
X185315000Y-82785750D01*
X180493744Y-82785750D01*
X180567333Y-82577658D01*
X180538892Y-82039356D01*
X180522048Y-81998690D01*
X185315000Y-81998690D01*
X185315000Y-82214250D01*
X185473750Y-82373000D01*
X186223000Y-82373000D01*
X186223000Y-81648750D01*
X186064250Y-81490000D01*
X185823691Y-81490000D01*
X185590302Y-81586673D01*
X185411673Y-81765301D01*
X185315000Y-81998690D01*
X180522048Y-81998690D01*
X180387611Y-81674131D01*
X180149774Y-81609831D01*
X179379605Y-82380000D01*
X179020395Y-82380000D01*
X178250226Y-81609831D01*
X178012389Y-81674131D01*
X177832667Y-82182342D01*
X172696882Y-82182342D01*
X174089450Y-80789774D01*
X178429831Y-80789774D01*
X178494131Y-81027611D01*
X178708728Y-81103500D01*
X178494131Y-81192389D01*
X178429831Y-81430226D01*
X179200000Y-82200395D01*
X179970169Y-81430226D01*
X179905869Y-81192389D01*
X179691272Y-81116500D01*
X179905869Y-81027611D01*
X179970169Y-80789774D01*
X179200000Y-80019605D01*
X178429831Y-80789774D01*
X174089450Y-80789774D01*
X174141824Y-80737400D01*
X174190084Y-80747000D01*
X175049916Y-80747000D01*
X175481200Y-80661212D01*
X175846825Y-80416909D01*
X176091128Y-80051284D01*
X176172471Y-79642342D01*
X177832667Y-79642342D01*
X177861108Y-80180644D01*
X178012389Y-80545869D01*
X178250226Y-80610169D01*
X179020395Y-79840000D01*
X179379605Y-79840000D01*
X180149774Y-80610169D01*
X180387611Y-80545869D01*
X180567333Y-80037658D01*
X180538892Y-79499356D01*
X180387611Y-79134131D01*
X180149774Y-79069831D01*
X179379605Y-79840000D01*
X179020395Y-79840000D01*
X178250226Y-79069831D01*
X178012389Y-79134131D01*
X177832667Y-79642342D01*
X176172471Y-79642342D01*
X176176916Y-79620000D01*
X176091128Y-79188716D01*
X175891684Y-78890226D01*
X178429831Y-78890226D01*
X179200000Y-79660395D01*
X179970169Y-78890226D01*
X179905869Y-78652389D01*
X179397658Y-78472667D01*
X178859356Y-78501108D01*
X178494131Y-78652389D01*
X178429831Y-78890226D01*
X175891684Y-78890226D01*
X175846825Y-78823091D01*
X175481200Y-78578788D01*
X175049916Y-78493000D01*
X174190084Y-78493000D01*
X173758800Y-78578788D01*
X173393175Y-78823091D01*
X173180542Y-79141318D01*
X172052000Y-78012776D01*
X172052000Y-77080000D01*
X173063084Y-77080000D01*
X173148872Y-77511284D01*
X173393175Y-77876909D01*
X173758800Y-78121212D01*
X174190084Y-78207000D01*
X175049916Y-78207000D01*
X175481200Y-78121212D01*
X175846825Y-77876909D01*
X176077286Y-77532000D01*
X178163005Y-77532000D01*
X178311879Y-77892303D01*
X178606148Y-78187086D01*
X178990825Y-78346818D01*
X179407348Y-78347181D01*
X179792303Y-78188121D01*
X180087086Y-77893852D01*
X180246818Y-77509175D01*
X180247181Y-77092652D01*
X180088121Y-76707697D01*
X179793852Y-76412914D01*
X179409175Y-76253182D01*
X178992652Y-76252819D01*
X178850698Y-76311473D01*
X177552000Y-75012776D01*
X177552000Y-73833008D01*
X177677589Y-73808027D01*
X177785754Y-73735754D01*
X177858027Y-73627589D01*
X177883406Y-73500000D01*
X177883406Y-73000000D01*
X177858027Y-72872411D01*
X177785754Y-72764246D01*
X177677589Y-72691973D01*
X177550000Y-72666594D01*
X176650000Y-72666594D01*
X176522411Y-72691973D01*
X176414246Y-72764246D01*
X176341973Y-72872411D01*
X176316594Y-73000000D01*
X176316594Y-73500000D01*
X176341973Y-73627589D01*
X176414246Y-73735754D01*
X176522411Y-73808027D01*
X176648000Y-73833008D01*
X176648000Y-75200000D01*
X176682406Y-75372973D01*
X176780388Y-75519612D01*
X177888775Y-76628000D01*
X176077286Y-76628000D01*
X175846825Y-76283091D01*
X175481200Y-76038788D01*
X175049916Y-75953000D01*
X174190084Y-75953000D01*
X173758800Y-76038788D01*
X173393175Y-76283091D01*
X173148872Y-76648716D01*
X173063084Y-77080000D01*
X172052000Y-77080000D01*
X172052000Y-74800000D01*
X172017594Y-74627027D01*
X171919612Y-74480388D01*
X169119612Y-71680388D01*
X168972973Y-71582406D01*
X168800000Y-71548000D01*
X168533406Y-71548000D01*
X168533406Y-71200000D01*
X168508027Y-71072411D01*
X168494389Y-71052000D01*
X169612776Y-71052000D01*
X173069337Y-74508562D01*
X173063084Y-74540000D01*
X173148872Y-74971284D01*
X173393175Y-75336909D01*
X173758800Y-75581212D01*
X174190084Y-75667000D01*
X175049916Y-75667000D01*
X175481200Y-75581212D01*
X175846825Y-75336909D01*
X176091128Y-74971284D01*
X176176916Y-74540000D01*
X176091128Y-74108716D01*
X175846825Y-73743091D01*
X175481200Y-73498788D01*
X175049916Y-73413000D01*
X174190084Y-73413000D01*
X173758800Y-73498788D01*
X173506557Y-73667332D01*
X170119612Y-70280388D01*
X169972973Y-70182406D01*
X169800000Y-70148000D01*
X165500000Y-70148000D01*
X165327027Y-70182406D01*
X165180388Y-70280388D01*
X164380388Y-71080388D01*
X164282406Y-71227027D01*
X164248000Y-71400000D01*
X164248000Y-75112775D01*
X162544182Y-76816594D01*
X161150000Y-76816594D01*
X161022411Y-76841973D01*
X160914246Y-76914246D01*
X160841973Y-77022411D01*
X160816594Y-77150000D01*
X159127000Y-77150000D01*
X159127000Y-72285750D01*
X160515000Y-72285750D01*
X160515000Y-72976310D01*
X160611673Y-73209699D01*
X160790302Y-73388327D01*
X161023691Y-73485000D01*
X161714250Y-73485000D01*
X161873000Y-73326250D01*
X161873000Y-72127000D01*
X162127000Y-72127000D01*
X162127000Y-73326250D01*
X162285750Y-73485000D01*
X162976309Y-73485000D01*
X163209698Y-73388327D01*
X163388327Y-73209699D01*
X163485000Y-72976310D01*
X163485000Y-72285750D01*
X163326250Y-72127000D01*
X162127000Y-72127000D01*
X161873000Y-72127000D01*
X160673750Y-72127000D01*
X160515000Y-72285750D01*
X159127000Y-72285750D01*
X159127000Y-71023690D01*
X160515000Y-71023690D01*
X160515000Y-71714250D01*
X160673750Y-71873000D01*
X161873000Y-71873000D01*
X161873000Y-70673750D01*
X161801316Y-70602066D01*
X161976941Y-70637000D01*
X162023059Y-70637000D01*
X162198684Y-70602066D01*
X162127000Y-70673750D01*
X162127000Y-71873000D01*
X163326250Y-71873000D01*
X163485000Y-71714250D01*
X163485000Y-71023690D01*
X163388327Y-70790301D01*
X163209698Y-70611673D01*
X162976309Y-70515000D01*
X162521976Y-70515000D01*
X162855324Y-70292265D01*
X163059295Y-69987000D01*
X172441710Y-69987000D01*
X172977354Y-70522645D01*
X173014412Y-70547406D01*
X173148326Y-70636885D01*
X173350000Y-70677000D01*
X176416856Y-70677000D01*
X176416973Y-70677589D01*
X176489246Y-70785754D01*
X176573000Y-70841716D01*
X176573000Y-71181910D01*
X176522411Y-71191973D01*
X176475975Y-71223000D01*
X175860128Y-71223000D01*
X175846825Y-71203091D01*
X175481200Y-70958788D01*
X175049916Y-70873000D01*
X174190084Y-70873000D01*
X173758800Y-70958788D01*
X173393175Y-71203091D01*
X173148872Y-71568716D01*
X173063084Y-72000000D01*
X173148872Y-72431284D01*
X173393175Y-72796909D01*
X173758800Y-73041212D01*
X174190084Y-73127000D01*
X175049916Y-73127000D01*
X175481200Y-73041212D01*
X175846825Y-72796909D01*
X176091128Y-72431284D01*
X176121817Y-72277000D01*
X176475975Y-72277000D01*
X176522411Y-72308027D01*
X176650000Y-72333406D01*
X177550000Y-72333406D01*
X177677589Y-72308027D01*
X177724025Y-72277000D01*
X180575975Y-72277000D01*
X180622411Y-72308027D01*
X180750000Y-72333406D01*
X181650000Y-72333406D01*
X181777589Y-72308027D01*
X181824025Y-72277000D01*
X182275975Y-72277000D01*
X182322411Y-72308027D01*
X182450000Y-72333406D01*
X183350000Y-72333406D01*
X183477589Y-72308027D01*
X183585754Y-72235754D01*
X183658027Y-72127589D01*
X183683406Y-72000000D01*
X183683406Y-71500000D01*
X183658027Y-71372411D01*
X183585754Y-71264246D01*
X183477589Y-71191973D01*
X183427000Y-71181910D01*
X183427000Y-69618290D01*
X183972645Y-69072646D01*
X184086884Y-68901675D01*
X184086885Y-68901674D01*
X184127000Y-68700000D01*
X184127000Y-66000000D01*
X184105512Y-65891973D01*
X184086885Y-65798325D01*
X183972645Y-65627355D01*
X183933406Y-65588116D01*
X183933406Y-65375000D01*
X183908027Y-65247411D01*
X183835754Y-65139246D01*
X183727589Y-65066973D01*
X183600000Y-65041594D01*
X183386884Y-65041594D01*
X183087000Y-64741710D01*
X183087000Y-63117333D01*
X183509644Y-62834931D01*
X183800770Y-62399231D01*
X183830000Y-62252282D01*
X183859230Y-62399231D01*
X184150356Y-62834931D01*
X184573000Y-63117333D01*
X184573000Y-63900000D01*
X184613115Y-64101675D01*
X184727355Y-64272645D01*
X184973000Y-64518291D01*
X184973000Y-66000000D01*
X185013115Y-66201675D01*
X185023000Y-66216469D01*
X185023000Y-69950000D01*
X185063115Y-70151675D01*
X185177355Y-70322645D01*
X187887873Y-73033163D01*
X187476809Y-73032805D01*
X187289446Y-73110222D01*
X187109612Y-72930388D01*
X186962973Y-72832406D01*
X186790000Y-72798000D01*
X183608308Y-72798000D01*
X183585754Y-72764246D01*
X183477589Y-72691973D01*
X183350000Y-72666594D01*
X182450000Y-72666594D01*
X182322411Y-72691973D01*
X182214246Y-72764246D01*
X182141973Y-72872411D01*
X182116594Y-73000000D01*
X182116594Y-73500000D01*
X182141973Y-73627589D01*
X182214246Y-73735754D01*
X182232574Y-73748000D01*
X182087225Y-73748000D01*
X181959485Y-73620260D01*
X181983406Y-73500000D01*
X181983406Y-73000000D01*
X181958027Y-72872411D01*
X181885754Y-72764246D01*
X181777589Y-72691973D01*
X181650000Y-72666594D01*
X180750000Y-72666594D01*
X180622411Y-72691973D01*
X180514246Y-72764246D01*
X180441973Y-72872411D01*
X180416594Y-73000000D01*
X180416594Y-73500000D01*
X180441973Y-73627589D01*
X180514246Y-73735754D01*
X180622411Y-73808027D01*
X180750000Y-73833406D01*
X180894182Y-73833406D01*
X181580387Y-74519612D01*
X181727026Y-74617594D01*
X181755724Y-74623302D01*
X181900000Y-74652000D01*
X183112776Y-74652000D01*
X184363479Y-75902703D01*
X184205133Y-76060772D01*
X184033196Y-76474842D01*
X184032805Y-76923191D01*
X184204019Y-77337560D01*
X184520772Y-77654867D01*
X184934842Y-77826804D01*
X185383191Y-77827195D01*
X185797560Y-77655981D01*
X186114867Y-77339228D01*
X186286804Y-76925158D01*
X186287195Y-76476809D01*
X186115981Y-76062440D01*
X185799228Y-75745133D01*
X185385158Y-75573196D01*
X185312357Y-75573133D01*
X183619612Y-73880388D01*
X183494453Y-73796759D01*
X183585754Y-73735754D01*
X183608308Y-73702000D01*
X186602776Y-73702000D01*
X186650192Y-73749416D01*
X186573196Y-73934842D01*
X186572805Y-74383191D01*
X186744019Y-74797560D01*
X187060772Y-75114867D01*
X187474842Y-75286804D01*
X187923191Y-75287195D01*
X188337560Y-75115981D01*
X188573000Y-74880952D01*
X188573000Y-75481710D01*
X188227355Y-75827355D01*
X188113115Y-75998325D01*
X188113115Y-75998326D01*
X188073000Y-76200000D01*
X188073000Y-78100000D01*
X188089171Y-78181300D01*
X187925158Y-78113196D01*
X187476809Y-78112805D01*
X187062440Y-78284019D01*
X186745133Y-78600772D01*
X186573196Y-79014842D01*
X186572805Y-79463191D01*
X186744019Y-79877560D01*
X187060772Y-80194867D01*
X187323000Y-80303754D01*
X187323000Y-81816856D01*
X187322411Y-81816973D01*
X187312479Y-81823609D01*
X187288327Y-81765301D01*
X187109698Y-81586673D01*
X186876309Y-81490000D01*
X186635750Y-81490000D01*
X186477000Y-81648750D01*
X186477000Y-82373000D01*
X187116594Y-82373000D01*
X187116594Y-82627000D01*
X186477000Y-82627000D01*
X186477000Y-83351250D01*
X186635750Y-83510000D01*
X186876309Y-83510000D01*
X187109698Y-83413327D01*
X187288327Y-83234699D01*
X187312479Y-83176391D01*
X187322411Y-83183027D01*
X187450000Y-83208406D01*
X188250000Y-83208406D01*
X188377589Y-83183027D01*
X188485754Y-83110754D01*
X188541716Y-83027000D01*
X188600000Y-83027000D01*
X188801675Y-82986885D01*
X188972645Y-82872645D01*
X189472645Y-82372645D01*
X189586885Y-82201674D01*
X189627000Y-82000000D01*
X189627000Y-78600000D01*
X189586885Y-78398326D01*
X189472645Y-78227355D01*
X189127000Y-77881710D01*
X189127000Y-77707745D01*
X189411861Y-77707745D01*
X189485995Y-77953864D01*
X190023223Y-78146965D01*
X190593454Y-78119778D01*
X190994005Y-77953864D01*
X191068139Y-77707745D01*
X190240000Y-76879605D01*
X189411861Y-77707745D01*
X189127000Y-77707745D01*
X189127000Y-77496435D01*
X189232255Y-77528139D01*
X190060395Y-76700000D01*
X190419605Y-76700000D01*
X191247745Y-77528139D01*
X191493864Y-77454005D01*
X191686965Y-76916777D01*
X191659778Y-76346546D01*
X191493864Y-75945995D01*
X191247745Y-75871861D01*
X190419605Y-76700000D01*
X190060395Y-76700000D01*
X189452842Y-76092448D01*
X189472645Y-76072645D01*
X189586885Y-75901674D01*
X189592591Y-75872986D01*
X190240000Y-76520395D01*
X191068139Y-75692255D01*
X190994005Y-75446136D01*
X190456777Y-75253035D01*
X189886546Y-75280222D01*
X189627000Y-75387730D01*
X189627000Y-73500000D01*
X189592594Y-73327027D01*
X189586885Y-73298325D01*
X189472645Y-73127355D01*
X186077000Y-69731710D01*
X186077000Y-68233750D01*
X190315000Y-68233750D01*
X190315000Y-68326309D01*
X190411673Y-68559698D01*
X190590301Y-68738327D01*
X190823690Y-68835000D01*
X191114250Y-68835000D01*
X191273000Y-68676250D01*
X191273000Y-68075000D01*
X191527000Y-68075000D01*
X191527000Y-68676250D01*
X191685750Y-68835000D01*
X191976310Y-68835000D01*
X192209699Y-68738327D01*
X192388327Y-68559698D01*
X192485000Y-68326309D01*
X192485000Y-68233750D01*
X192326250Y-68075000D01*
X191527000Y-68075000D01*
X191273000Y-68075000D01*
X190473750Y-68075000D01*
X190315000Y-68233750D01*
X186077000Y-68233750D01*
X186077000Y-67573691D01*
X190315000Y-67573691D01*
X190315000Y-67666250D01*
X190473750Y-67825000D01*
X191273000Y-67825000D01*
X191273000Y-67223750D01*
X191527000Y-67223750D01*
X191527000Y-67825000D01*
X192326250Y-67825000D01*
X192485000Y-67666250D01*
X192485000Y-67573691D01*
X192388327Y-67340302D01*
X192209699Y-67161673D01*
X191976310Y-67065000D01*
X191685750Y-67065000D01*
X191527000Y-67223750D01*
X191273000Y-67223750D01*
X191114250Y-67065000D01*
X190823690Y-67065000D01*
X190590301Y-67161673D01*
X190411673Y-67340302D01*
X190315000Y-67573691D01*
X186077000Y-67573691D01*
X186077000Y-66958406D01*
X186500000Y-66958406D01*
X186627589Y-66933027D01*
X186735754Y-66860754D01*
X186808027Y-66752589D01*
X186833406Y-66625000D01*
X186833406Y-66285750D01*
X186865000Y-66285750D01*
X186865000Y-66751310D01*
X186961673Y-66984699D01*
X187140302Y-67163327D01*
X187373691Y-67260000D01*
X187714250Y-67260000D01*
X187873000Y-67101250D01*
X187873000Y-66127000D01*
X188127000Y-66127000D01*
X188127000Y-67101250D01*
X188285750Y-67260000D01*
X188626309Y-67260000D01*
X188859698Y-67163327D01*
X189038327Y-66984699D01*
X189135000Y-66751310D01*
X189135000Y-66285750D01*
X188976250Y-66127000D01*
X188127000Y-66127000D01*
X187873000Y-66127000D01*
X187023750Y-66127000D01*
X186865000Y-66285750D01*
X186833406Y-66285750D01*
X186833406Y-65375000D01*
X186808282Y-65248690D01*
X186865000Y-65248690D01*
X186865000Y-65714250D01*
X187023750Y-65873000D01*
X187873000Y-65873000D01*
X187873000Y-64898750D01*
X188127000Y-64898750D01*
X188127000Y-65873000D01*
X188976250Y-65873000D01*
X189135000Y-65714250D01*
X189135000Y-65248690D01*
X189038327Y-65015301D01*
X188923026Y-64900000D01*
X190616594Y-64900000D01*
X190616594Y-65400000D01*
X190641973Y-65527589D01*
X190714246Y-65635754D01*
X190822411Y-65708027D01*
X190948000Y-65733008D01*
X190948000Y-65866992D01*
X190822411Y-65891973D01*
X190714246Y-65964246D01*
X190641973Y-66072411D01*
X190616594Y-66200000D01*
X190616594Y-66700000D01*
X190641973Y-66827589D01*
X190714246Y-66935754D01*
X190822411Y-67008027D01*
X190950000Y-67033406D01*
X191850000Y-67033406D01*
X191977589Y-67008027D01*
X192085754Y-66935754D01*
X192158027Y-66827589D01*
X192183406Y-66700000D01*
X192183406Y-66200000D01*
X192158027Y-66072411D01*
X192085754Y-65964246D01*
X191977589Y-65891973D01*
X191852000Y-65866992D01*
X191852000Y-65733008D01*
X191977589Y-65708027D01*
X192085754Y-65635754D01*
X192158027Y-65527589D01*
X192183406Y-65400000D01*
X192183406Y-64900000D01*
X192158027Y-64772411D01*
X192085754Y-64664246D01*
X191977589Y-64591973D01*
X191850000Y-64566594D01*
X190950000Y-64566594D01*
X190822411Y-64591973D01*
X190714246Y-64664246D01*
X190641973Y-64772411D01*
X190616594Y-64900000D01*
X188923026Y-64900000D01*
X188859698Y-64836673D01*
X188626309Y-64740000D01*
X188285750Y-64740000D01*
X188127000Y-64898750D01*
X187873000Y-64898750D01*
X187714250Y-64740000D01*
X187373691Y-64740000D01*
X187140302Y-64836673D01*
X186961673Y-65015301D01*
X186865000Y-65248690D01*
X186808282Y-65248690D01*
X186808027Y-65247411D01*
X186735754Y-65139246D01*
X186627589Y-65066973D01*
X186500000Y-65041594D01*
X186027000Y-65041594D01*
X186027000Y-64300000D01*
X185986885Y-64098326D01*
X185921185Y-64000000D01*
X185872645Y-63927354D01*
X185627000Y-63681710D01*
X185627000Y-63117333D01*
X186049644Y-62834931D01*
X186340770Y-62399231D01*
X186370000Y-62252282D01*
X186399230Y-62399231D01*
X186690356Y-62834931D01*
X187126056Y-63126057D01*
X187640000Y-63228287D01*
X188153944Y-63126057D01*
X188589644Y-62834931D01*
X188880770Y-62399231D01*
X188927098Y-62166322D01*
X189430388Y-62669612D01*
X189577027Y-62767594D01*
X189750000Y-62802000D01*
X190691692Y-62802000D01*
X190714246Y-62835754D01*
X190822411Y-62908027D01*
X190948000Y-62933008D01*
X190948000Y-63066992D01*
X190822411Y-63091973D01*
X190714246Y-63164246D01*
X190641973Y-63272411D01*
X190616594Y-63400000D01*
X190616594Y-63900000D01*
X190641973Y-64027589D01*
X190714246Y-64135754D01*
X190822411Y-64208027D01*
X190950000Y-64233406D01*
X191850000Y-64233406D01*
X191977589Y-64208027D01*
X192085754Y-64135754D01*
X192158027Y-64027589D01*
X192183406Y-63900000D01*
X192183406Y-63400000D01*
X192158027Y-63272411D01*
X192085754Y-63164246D01*
X191977589Y-63091973D01*
X191852000Y-63066992D01*
X191852000Y-62933008D01*
X191977589Y-62908027D01*
X192085754Y-62835754D01*
X192158027Y-62727589D01*
X192183406Y-62600000D01*
X192183406Y-62100000D01*
X192158027Y-61972411D01*
X192085754Y-61864246D01*
X191977589Y-61791973D01*
X191850000Y-61766594D01*
X190950000Y-61766594D01*
X190822411Y-61791973D01*
X190714246Y-61864246D01*
X190691692Y-61898000D01*
X189937224Y-61898000D01*
X189319612Y-61280388D01*
X189172973Y-61182406D01*
X189000000Y-61148000D01*
X188949839Y-61148000D01*
X188880770Y-60800769D01*
X188589644Y-60365069D01*
X188420425Y-60252000D01*
X190162776Y-60252000D01*
X190616594Y-60705818D01*
X190616594Y-61100000D01*
X190641973Y-61227589D01*
X190714246Y-61335754D01*
X190822411Y-61408027D01*
X190950000Y-61433406D01*
X191850000Y-61433406D01*
X191977589Y-61408027D01*
X192085754Y-61335754D01*
X192158027Y-61227589D01*
X192183406Y-61100000D01*
X192183406Y-60600000D01*
X192158027Y-60472411D01*
X192085754Y-60364246D01*
X191977589Y-60291973D01*
X191850000Y-60266594D01*
X191455818Y-60266594D01*
X190669612Y-59480388D01*
X190522973Y-59382406D01*
X190350000Y-59348000D01*
X186400000Y-59348000D01*
X186227027Y-59382406D01*
X186080388Y-59480387D01*
X185507922Y-60052854D01*
X185100000Y-59971713D01*
X184586056Y-60073943D01*
X184150356Y-60365069D01*
X183859230Y-60800769D01*
X183830000Y-60947718D01*
X183800770Y-60800769D01*
X183509644Y-60365069D01*
X183073944Y-60073943D01*
X182560000Y-59971713D01*
X182046056Y-60073943D01*
X181610356Y-60365069D01*
X181319230Y-60800769D01*
X181217000Y-61314713D01*
X181217000Y-61885287D01*
X181319230Y-62399231D01*
X181610356Y-62834931D01*
X182033000Y-63117333D01*
X182033000Y-64909975D01*
X181959698Y-64836673D01*
X181726309Y-64740000D01*
X181385750Y-64740000D01*
X181227000Y-64898750D01*
X181227000Y-65873000D01*
X182076250Y-65873000D01*
X182235000Y-65714250D01*
X182235000Y-65380290D01*
X182266594Y-65411884D01*
X182266594Y-66625000D01*
X182291973Y-66752589D01*
X182364246Y-66860754D01*
X182472411Y-66933027D01*
X182600000Y-66958406D01*
X183073000Y-66958406D01*
X183073000Y-68481709D01*
X182527355Y-69027355D01*
X182413115Y-69198325D01*
X182401180Y-69258326D01*
X182373000Y-69400000D01*
X182373000Y-71181910D01*
X182322411Y-71191973D01*
X182275975Y-71223000D01*
X181824025Y-71223000D01*
X181777589Y-71191973D01*
X181650000Y-71166594D01*
X180750000Y-71166594D01*
X180622411Y-71191973D01*
X180575975Y-71223000D01*
X177724025Y-71223000D01*
X177677589Y-71191973D01*
X177627000Y-71181910D01*
X177627000Y-70841716D01*
X177710754Y-70785754D01*
X177783027Y-70677589D01*
X177808406Y-70550000D01*
X177808406Y-69750000D01*
X177783027Y-69622411D01*
X177776391Y-69612479D01*
X177834699Y-69588327D01*
X178013327Y-69409698D01*
X178110000Y-69176309D01*
X178110000Y-68935750D01*
X177951250Y-68777000D01*
X177227000Y-68777000D01*
X177227000Y-69416594D01*
X176973000Y-69416594D01*
X176973000Y-68777000D01*
X176248750Y-68777000D01*
X176090000Y-68935750D01*
X176090000Y-69176309D01*
X176186673Y-69409698D01*
X176365301Y-69588327D01*
X176423609Y-69612479D01*
X176416973Y-69622411D01*
X176416856Y-69623000D01*
X173568291Y-69623000D01*
X173032645Y-69087355D01*
X172861675Y-68973115D01*
X172660000Y-68933000D01*
X163059295Y-68933000D01*
X162855324Y-68627735D01*
X162527000Y-68408357D01*
X162527000Y-68123691D01*
X176090000Y-68123691D01*
X176090000Y-68364250D01*
X176248750Y-68523000D01*
X176973000Y-68523000D01*
X176973000Y-67773750D01*
X177227000Y-67773750D01*
X177227000Y-68523000D01*
X177951250Y-68523000D01*
X178110000Y-68364250D01*
X178110000Y-68123691D01*
X178013327Y-67890302D01*
X177834699Y-67711673D01*
X177601310Y-67615000D01*
X177385750Y-67615000D01*
X177227000Y-67773750D01*
X176973000Y-67773750D01*
X176814250Y-67615000D01*
X176598690Y-67615000D01*
X176365301Y-67711673D01*
X176186673Y-67890302D01*
X176090000Y-68123691D01*
X162527000Y-68123691D01*
X162527000Y-67343975D01*
X174872874Y-67343975D01*
X174983320Y-67611275D01*
X175187650Y-67815961D01*
X175454756Y-67926874D01*
X175743975Y-67927126D01*
X176011275Y-67816680D01*
X176215961Y-67612350D01*
X176326874Y-67345244D01*
X176326955Y-67252000D01*
X176331910Y-67252000D01*
X176341973Y-67302589D01*
X176414246Y-67410754D01*
X176522411Y-67483027D01*
X176650000Y-67508406D01*
X177450000Y-67508406D01*
X177577589Y-67483027D01*
X177685754Y-67410754D01*
X177758027Y-67302589D01*
X177783406Y-67175000D01*
X177783406Y-66425000D01*
X177758027Y-66297411D01*
X177738307Y-66267898D01*
X177809699Y-66238327D01*
X177988327Y-66059698D01*
X178012479Y-66001391D01*
X178022411Y-66008027D01*
X178098000Y-66023063D01*
X178098000Y-66101937D01*
X178022411Y-66116973D01*
X177914246Y-66189246D01*
X177841973Y-66297411D01*
X177816594Y-66425000D01*
X177816594Y-67175000D01*
X177841973Y-67302589D01*
X177914246Y-67410754D01*
X178022411Y-67483027D01*
X178150000Y-67508406D01*
X178950000Y-67508406D01*
X179077589Y-67483027D01*
X179185754Y-67410754D01*
X179258027Y-67302589D01*
X179283406Y-67175000D01*
X179283406Y-66425000D01*
X179258027Y-66297411D01*
X179250236Y-66285750D01*
X179965000Y-66285750D01*
X179965000Y-66751310D01*
X180061673Y-66984699D01*
X180240302Y-67163327D01*
X180473691Y-67260000D01*
X180814250Y-67260000D01*
X180973000Y-67101250D01*
X180973000Y-66127000D01*
X181227000Y-66127000D01*
X181227000Y-67101250D01*
X181385750Y-67260000D01*
X181726309Y-67260000D01*
X181959698Y-67163327D01*
X182138327Y-66984699D01*
X182235000Y-66751310D01*
X182235000Y-66285750D01*
X182076250Y-66127000D01*
X181227000Y-66127000D01*
X180973000Y-66127000D01*
X180123750Y-66127000D01*
X179965000Y-66285750D01*
X179250236Y-66285750D01*
X179185754Y-66189246D01*
X179077589Y-66116973D01*
X179002000Y-66101937D01*
X179002000Y-66033406D01*
X179050000Y-66033406D01*
X179177589Y-66008027D01*
X179285754Y-65935754D01*
X179358027Y-65827589D01*
X179383406Y-65700000D01*
X179383406Y-65248690D01*
X179965000Y-65248690D01*
X179965000Y-65714250D01*
X180123750Y-65873000D01*
X180973000Y-65873000D01*
X180973000Y-64898750D01*
X180814250Y-64740000D01*
X180473691Y-64740000D01*
X180240302Y-64836673D01*
X180061673Y-65015301D01*
X179965000Y-65248690D01*
X179383406Y-65248690D01*
X179383406Y-65200000D01*
X179358027Y-65072411D01*
X179285754Y-64964246D01*
X179177589Y-64891973D01*
X179050000Y-64866594D01*
X178150000Y-64866594D01*
X178022411Y-64891973D01*
X178012479Y-64898609D01*
X177988327Y-64840302D01*
X177809699Y-64661673D01*
X177576310Y-64565000D01*
X177285750Y-64565000D01*
X177127000Y-64723750D01*
X177127000Y-65325000D01*
X177816594Y-65325000D01*
X177816594Y-65575000D01*
X177127000Y-65575000D01*
X177127000Y-66091594D01*
X176873000Y-66091594D01*
X176873000Y-65575000D01*
X176073750Y-65575000D01*
X175915000Y-65733750D01*
X175915000Y-65826309D01*
X176011673Y-66059698D01*
X176190301Y-66238327D01*
X176341286Y-66300867D01*
X176331910Y-66348000D01*
X176000000Y-66348000D01*
X175827027Y-66382406D01*
X175691326Y-66473079D01*
X175456025Y-66472874D01*
X175188725Y-66583320D01*
X174984039Y-66787650D01*
X174873126Y-67054756D01*
X174872874Y-67343975D01*
X162527000Y-67343975D01*
X162527000Y-66918290D01*
X164918291Y-64527000D01*
X165798336Y-64527000D01*
X165844019Y-64637560D01*
X166160772Y-64954867D01*
X166574842Y-65126804D01*
X167023191Y-65127195D01*
X167437560Y-64955981D01*
X167754867Y-64639228D01*
X167926804Y-64225158D01*
X167926805Y-64223191D01*
X173272805Y-64223191D01*
X173444019Y-64637560D01*
X173760772Y-64954867D01*
X174174842Y-65126804D01*
X174623191Y-65127195D01*
X174752680Y-65073691D01*
X175915000Y-65073691D01*
X175915000Y-65166250D01*
X176073750Y-65325000D01*
X176873000Y-65325000D01*
X176873000Y-64723750D01*
X176714250Y-64565000D01*
X176423690Y-64565000D01*
X176190301Y-64661673D01*
X176011673Y-64840302D01*
X175915000Y-65073691D01*
X174752680Y-65073691D01*
X175037560Y-64955981D01*
X175354867Y-64639228D01*
X175432611Y-64452000D01*
X176338560Y-64452000D01*
X176422411Y-64508027D01*
X176550000Y-64533406D01*
X177450000Y-64533406D01*
X177577589Y-64508027D01*
X177685754Y-64435754D01*
X177708308Y-64402000D01*
X177891692Y-64402000D01*
X177914246Y-64435754D01*
X178022411Y-64508027D01*
X178150000Y-64533406D01*
X179050000Y-64533406D01*
X179177589Y-64508027D01*
X179285754Y-64435754D01*
X179358027Y-64327589D01*
X179383406Y-64200000D01*
X179383406Y-63700000D01*
X179358027Y-63572411D01*
X179285754Y-63464246D01*
X179177589Y-63391973D01*
X179050000Y-63366594D01*
X178150000Y-63366594D01*
X178022411Y-63391973D01*
X177914246Y-63464246D01*
X177891692Y-63498000D01*
X177708308Y-63498000D01*
X177685754Y-63464246D01*
X177577589Y-63391973D01*
X177450000Y-63366594D01*
X176550000Y-63366594D01*
X176422411Y-63391973D01*
X176314246Y-63464246D01*
X176258284Y-63548000D01*
X175432653Y-63548000D01*
X175355981Y-63362440D01*
X175039228Y-63045133D01*
X174625158Y-62873196D01*
X174176809Y-62872805D01*
X173762440Y-63044019D01*
X173445133Y-63360772D01*
X173273196Y-63774842D01*
X173272805Y-64223191D01*
X167926805Y-64223191D01*
X167927195Y-63776809D01*
X167755981Y-63362440D01*
X167439228Y-63045133D01*
X167025158Y-62873196D01*
X166576809Y-62872805D01*
X166162440Y-63044019D01*
X165845133Y-63360772D01*
X165798532Y-63473000D01*
X164700000Y-63473000D01*
X164498326Y-63513115D01*
X164327355Y-63627354D01*
X161627355Y-66327355D01*
X161513115Y-66498325D01*
X161513115Y-66498326D01*
X161473000Y-66700000D01*
X161473000Y-68408357D01*
X161144676Y-68627735D01*
X160889535Y-69009582D01*
X160799941Y-69460000D01*
X160889535Y-69910418D01*
X161144676Y-70292265D01*
X161478024Y-70515000D01*
X161023691Y-70515000D01*
X160790302Y-70611673D01*
X160611673Y-70790301D01*
X160515000Y-71023690D01*
X159127000Y-71023690D01*
X159127000Y-58402000D01*
X194873000Y-58402000D01*
X194873000Y-84598000D01*
M02*
