M48
;DRILL file {KiCad (2017-12-14 revision b47a06e42)-master} date Thu Dec 14 23:45:39 2017
;FORMAT={2:4/ absolute / inch / suppress leading zeros}
FMAT,2
INCH,TZ
T1C0.016
T2C0.022
T3C0.031
T4C0.039
T5C0.045
%
G90
G05
M72
T1
X66693Y-29346
X69094Y-25866
X69134Y-26457
X70236Y-26929
X71102Y-25315
X72874Y-32835
X74252Y-25394
X75197Y-29646
T2
X72898Y-30197
X73898Y-29197
X73898Y-31197
X74898Y-30197
T3
X70551Y-30433
X70551Y-31433
X70551Y-32433
X65748Y-28346
X65748Y-29346
X65748Y-30346
X65748Y-31346
X68748Y-28346
X68748Y-29346
X68748Y-30346
X68748Y-31346
X65669Y-25197
X68661Y-25197
T4
X63780Y-30709
X63780Y-31709
X63780Y-32709
X63780Y-27346
X63780Y-28346
T5
X71874Y-24252
X72874Y-24252
X73874Y-24252
T0
M30
